<svg width="414" height="349" viewBox="0 0 414 349" fill="none" xmlns="http://www.w3.org/2000/svg">
<path d="M180.79 66.6898C180.79 66.6898 174.68 58.8298 171.7 58.7898C168.72 58.7498 165.91 64.9898 163.82 64.6598C161.73 64.3298 159.46 57.1698 154.09 58.8598C148.72 60.5498 147.39 68.8598 143.82 68.5598C140.25 68.2598 122.98 37.7898 122.98 37.7898L110.54 45.0198C110.54 45.0198 129.15 74.6998 127.54 77.9098C125.93 81.1198 118.18 77.8498 113.88 81.5198C109.58 85.1898 114.48 90.9298 113.66 92.8698C112.84 94.8098 107.47 93.7898 105.94 96.3498C104.41 98.9098 106.42 108.35 106.42 108.35L141.28 81.6698L180.79 66.6898Z" fill="white" stroke="#263238" stroke-miterlimit="10"/>
<path d="M99.0901 30.3599L95.8101 45.1699L99.6801 52.5199L109.36 47.4299C109.36 47.4299 104.4 41.4299 99.0901 30.3599Z" fill="#03A438" stroke="#263238" stroke-miterlimit="10"/>
<path d="M115.86 21.5198L129.86 27.1998L133.73 34.5498L124.09 39.6498C124.09 39.6498 121.97 32.1698 115.86 21.5198Z" fill="#03A438" stroke="#263238" stroke-miterlimit="10"/>
<path d="M96.0898 4.56982C96.0898 4.56982 88.1598 27.5698 109.35 47.3898L124.99 39.1698C124.99 39.1698 121.15 12.6198 96.0898 4.56982Z" fill="white" stroke="#263238" stroke-miterlimit="10"/>
<path d="M104.09 41.6099C105.711 43.6679 107.486 45.6 109.4 47.3899L124.99 39.1699C124.554 36.6141 123.884 34.1036 122.99 31.6699L104.09 41.6099Z" fill="#03A438" stroke="#263238" stroke-miterlimit="10"/>
<path d="M111.523 23.7257C112.475 20.471 110.608 17.061 107.353 16.1092C104.099 15.1575 100.689 17.0244 99.737 20.2792C98.7852 23.5339 100.652 26.9439 103.907 27.8957C107.162 28.8474 110.572 26.9805 111.523 23.7257Z" fill="#03A438" stroke="#263238" stroke-miterlimit="10"/>
<path d="M109.09 20.1698C108.734 19.4974 108.186 18.9457 107.516 18.5843C106.847 18.2229 106.085 18.068 105.327 18.1392C104.57 18.2105 103.85 18.5046 103.26 18.9845C102.669 19.4644 102.234 20.1086 102.01 20.8356C101.785 21.5627 101.781 22.34 101.997 23.0694C102.214 23.7988 102.642 24.4476 103.228 24.9338C103.813 25.42 104.529 25.7219 105.286 25.8013C106.043 25.8807 106.806 25.734 107.48 25.3798C107.928 25.144 108.326 24.8221 108.649 24.4324C108.973 24.0427 109.217 23.593 109.366 23.109C109.516 22.625 109.568 22.1162 109.521 21.6119C109.474 21.1075 109.327 20.6175 109.09 20.1698Z" fill="white" stroke="#263238" stroke-miterlimit="10"/>
<path d="M401.26 190.16L393.09 195.83L393.14 205.77L385.22 199.76L375.78 202.88L379.05 193.49L373.17 185.47L383.11 185.68L388.92 177.61L391.79 187.13L401.26 190.16Z" fill="white" stroke="#263238" stroke-miterlimit="10"/>
<path d="M19.65 230.05L17.69 236.86L22.19 242.34L15.1 242.58L11.28 248.55L8.86 241.88L2 240.1L7.6 235.74L7.18 228.66L13.05 232.63L19.65 230.05Z" fill="white" stroke="#263238" stroke-miterlimit="10"/>
<path d="M134.45 318.1L132.49 324.91L136.99 330.39L129.9 330.63L126.08 336.6L123.67 329.94L116.81 328.15L122.4 323.79L121.98 316.71L127.85 320.68L134.45 318.1Z" fill="white" stroke="#263238" stroke-miterlimit="10"/>
<path d="M299.57 318.1L297.6 324.91L302.1 330.39L295.02 330.63L291.2 336.6L288.78 329.94L281.92 328.15L287.51 323.79L287.09 316.71L292.96 320.68L299.57 318.1Z" fill="white" stroke="#263238" stroke-miterlimit="10"/>
<path d="M54.2599 106.4L52.8899 111.18L56.0399 115.02L51.0699 115.18L48.3999 119.37L46.6999 114.7L41.8999 113.44L45.8199 110.39L45.5199 105.43L49.6399 108.22L54.2599 106.4Z" fill="white" stroke="#263238" stroke-miterlimit="10"/>
<path d="M145.69 8.74L141.39 11.24L141.02 16.2L137.32 12.89L132.49 14.06L134.49 9.51L131.88 5.29L136.83 5.79L140.04 2L141.09 6.86L145.69 8.74Z" fill="white" stroke="#263238" stroke-miterlimit="10"/>
<path d="M410.3 205.55L408.92 210.33L412.08 214.17L407.11 214.33L404.43 218.52L402.74 213.85L397.93 212.6L401.85 209.54L401.56 204.58L405.67 207.37L410.3 205.55Z" fill="white" stroke="#263238" stroke-miterlimit="10"/>
<path d="M252.65 29.7201L250.68 36.5301L255.18 42.0101L248.1 42.2501L244.28 48.2201L241.86 41.5601L235 39.7701L240.59 35.4101L240.17 28.3301L246.04 32.3001L252.65 29.7201Z" fill="white" stroke="#263238" stroke-miterlimit="10"/>
<path d="M210.55 323.46C284.103 323.46 343.73 263.833 343.73 190.28C343.73 116.727 284.103 57.0999 210.55 57.0999C136.997 57.0999 77.3701 116.727 77.3701 190.28C77.3701 263.833 136.997 323.46 210.55 323.46Z" fill="#03A438" stroke="#263238" stroke-miterlimit="10"/>
<path d="M183.8 313.5C190.942 315.056 198.207 315.98 205.51 316.26" stroke="#263238" stroke-miterlimit="10"/>
<path d="M167.48 308.77C171.09 310.08 174.76 311.24 178.48 312.22" stroke="#263238" stroke-miterlimit="10"/>
<path d="M89.2802 155.78C80.8036 185.63 83.6284 217.558 97.2142 245.456C110.8 273.355 134.193 295.266 162.92 307" stroke="#263238" stroke-miterlimit="10"/>
<path d="M106.23 119.51C101.676 126.229 97.7748 133.368 94.5801 140.83" stroke="#263238" stroke-miterlimit="10"/>
<path d="M192.5 131.13L206.08 133.94L210.71 138.74L216.74 139.67L218.66 145.39L217.25 149.27L213.14 151.15L203.06 149.51L202.79 148.27L207.55 144.95L204.26 138.88L195.25 137.64L190.45 133.53L192.5 131.13Z" fill="white" stroke="#263238" stroke-miterlimit="10"/>
<path d="M301.92 256.42L291.15 254.6L278.15 252.95L268.59 255.07L259.23 255.21L249.83 259.56L244.35 261.11L240.95 261.86L235.29 267L229.67 270.84L220.17 267.44L220.42 258.33L214.69 257.33L208.52 258.7L206.99 256.17L206.37 250.48L203.53 247.87L199.34 249.45L198.79 252.81L193.62 254.28L187.76 249.76L184.26 242.76L186.97 233.09L196.05 231.72L199 233.34L202.71 232.51L206.71 228.71L210.99 229.05L218.67 237.38L220.76 236.6L218.57 229.6L215.9 226.3L215.21 220.3L225.53 212.83L224.53 201.07L228.53 195.96L230.97 187.96L233.92 186.65L239.99 180.45L239.75 177.91L234.88 179.32L233.41 177.05L230.01 177.81L225.01 180.21L226.59 175.65L236.79 170.17L238.64 166.85L244.47 172.68L247.87 174.84L251.87 172.64L249.13 169.04L241.62 165.86L232.41 159.17L223.53 155.64L215.85 156.05L211.32 153.17L206.11 153.03L205.77 154.4L207.14 163.48L209.06 166.3L208.47 176.79L201.21 173.22V168.69L194.05 167.05L190.52 164.27L190.35 156.21L197.86 147.75L196.86 140.2L193.53 141.27L190.76 138.97L188.76 134.55L186.53 134.72L186.4 139.93L183.09 141.31L179.15 130.85L176.34 129.85L171.61 128.96L167.22 132.52L174.69 137.01L177.09 142.01L164.09 136.15L154.53 129.53L152.09 121.32L143.52 120.63L138.24 126.01C136.944 127.249 135.582 128.418 134.16 129.51C132.75 130.51 127.03 132.39 127.03 132.39L126.96 137.91L119.96 139.79L121.33 143.05L133.16 142.37L140.46 147.54L142.86 158.34L141.59 168.66L144.47 178.66L139.18 195.66L142.33 218.59L147.99 230.94L154.19 239.94L158.96 239.53L156.32 234.93L153.03 231.78L149.98 225.33L152.62 224.1L159.4 234.25L164.68 243.44L166.46 251.44L173.9 257.23L186.09 262.71L203.09 263.47L209.09 267L213.89 271.11L220.19 273.27L227.39 273.62L234.11 271.8C234.11 271.8 234.49 274.95 234.83 276.5C235.17 278.05 232.02 284.25 232.02 284.25L230.02 291.17L234.02 297.41L241.43 298.68L253.09 306.43L257.82 307.32L258.82 311.95L259.82 313.95C282.984 304.768 303.095 289.249 317.85 269.17L317.52 266.9L322.52 249.9L317.89 248.01L301.92 256.42Z" fill="white" stroke="#263238" stroke-miterlimit="10"/>
<path d="M306.94 127.41L302.25 122.3L296.42 116.47L293.13 107.47L298.89 107.16L298.51 104.01L294.43 104.59L297.48 102.29L300.71 99.2899L300.02 96.1999L295.22 92.0899L292.96 85.6199C270.15 67.6649 242.101 57.6483 213.077 57.0923C184.053 56.5364 155.642 65.4716 132.16 82.5399L140.4 85.9999L137.31 92.5099L131.72 95.0499L132.96 103.52L130.69 104.99L128.36 109.07L129.9 114.56L135.29 114.01L134.29 119.73L139.54 118.57L145.95 105.17L145.78 100.03L154.28 97.4999L155.62 93.3099L164.36 90.3999L164.12 84.9499L170.53 83.1999C170.53 83.1999 174.61 79.6999 175.53 79.4999C177.401 79.4884 179.269 79.6154 181.12 79.8799L186.57 82.5499L193.09 81.1699L197.89 76.5499L205.12 75.5499C206.288 75.9998 207.546 76.1643 208.79 76.0299C210.33 75.6799 214.48 72.4999 214.48 72.4999L224.66 76.0599L228.98 78.0599L229.98 82.6899L234.75 82.2799L235.67 79.1599L240.1 80.1599L240.34 82.6899L231.63 87.1699L238.38 92.7899L250.86 96.4999L256.86 101.64L263.78 100.75L264.64 97.3199L266.97 96.1599L257.58 91.7699L252.51 92.2499L256.24 90.1199L251.37 85.6999L256.55 84.2199L264.16 86.4199L267.35 93.4799L271.63 96.7399L276.4 105.07L284.28 108.5L286.55 118.68L294.67 121.74L295.09 125.17V129.39L298.18 134.53L299.41 137.17L304.86 136.93L306.16 131.14L306.94 127.41Z" fill="white" stroke="#263238" stroke-miterlimit="10"/>
<path d="M304.09 95.4299L304.48 97.1999L304.04 102.48L305.92 106.6L309.59 107.08L310.89 112.94L306.89 112.22L309.66 129.09L307.47 136.7L311.85 144.79L316.69 147.6L320.39 164.27L327.28 176.33L333.79 185.25L341.3 185.52L342.4 178.8L343.23 177.8C342.702 172.292 341.837 166.822 340.64 161.42C335.104 136.348 322.407 113.423 304.09 95.4299Z" fill="white" stroke="#263238" stroke-miterlimit="10"/>
<path d="M232.34 109.33L209.99 104.9L201.11 107.2L200.25 113.54L195.66 110.35L189.22 113.4L190.86 123.72L197.3 126.5L200.01 119.75L205.67 123.35L217.09 129.55L220.92 138.09L231.21 146.49L243.69 141.45L242.35 136.9L238.41 132.27L235.05 120.06L236.97 114.13L232.34 109.33Z" fill="white" stroke="#263238" stroke-miterlimit="10"/>
<path d="M250.51 112.42L245.61 112.21L242.35 116.5L246.5 124.96L250.51 124.07V112.42Z" fill="white" stroke="#263238" stroke-miterlimit="10"/>
<path d="M280.51 111.91L268.79 108.68L265.8 105.46L263.54 106.94L267.07 112.63L270.71 120.24L275.75 121.06L276.4 119.62L272.59 115.61L281.3 116.91L280.51 111.91Z" fill="white" stroke="#263238" stroke-miterlimit="10"/>
<path d="M215.15 243.31L214.19 244.82L224.06 245.54L228.72 249.04L234.72 248.35L236.13 244.48L228.76 244.82L215.15 243.31Z" fill="white" stroke="#263238" stroke-miterlimit="10"/>
<path d="M243.91 243.07L237.84 246.36L239.32 248.63L247.34 246.84L248.34 244.03L245.63 244.96L243.91 243.07Z" fill="white" stroke="#263238" stroke-miterlimit="10"/>
<path d="M370.09 59.6899L312.56 44.4099L326.33 62.1699L370.09 59.6899Z" fill="white" stroke="#263238" stroke-linecap="round" stroke-linejoin="round"/>
<path d="M326.33 62.1699L325.9 74.1199L370.09 59.6899L326.33 62.1699Z" fill="white" stroke="#263238" stroke-linecap="round" stroke-linejoin="round"/>
<path d="M331.54 68.1399L325.9 74.1199L370.09 59.6899L331.54 68.1399Z" fill="white" stroke="#263238" stroke-linecap="round" stroke-linejoin="round"/>
<path d="M370.09 59.6899L331.54 68.1399L341.59 85.6499L370.09 59.6899Z" fill="white" stroke="#263238" stroke-linecap="round" stroke-linejoin="round"/>
<path d="M316.86 71.3799L315.38 71.5799" stroke="#263238" stroke-linecap="round" stroke-linejoin="round"/>
<path d="M312.42 72C279.6 76.68 74.5201 107.73 31.6901 158.17C-6.38991 203.02 56.8901 215.58 71.6901 217.85" stroke="#263238" stroke-linecap="round" stroke-linejoin="round" stroke-dasharray="2.99 2.99"/>
<path d="M73.0903 218.06C74.0403 218.2 74.5703 218.25 74.5703 218.25" stroke="#263238" stroke-linecap="round" stroke-linejoin="round"/>
<path d="M93.6299 58.3199C93.6297 56.5808 93.2223 54.866 92.4404 53.3126C91.6585 51.7592 90.5237 50.4105 89.127 49.3744C87.7303 48.3383 86.1104 47.6435 84.397 47.3458C82.6836 47.0481 80.9243 47.1557 79.2599 47.6599C78.1389 44.4827 76.0614 41.7307 73.3131 39.782C70.5647 37.8332 67.2803 36.7835 63.9111 36.7769C60.542 36.7703 57.2535 37.8073 54.4975 39.7452C51.7415 41.6832 49.6534 44.4271 48.5199 47.5999C47.5443 47.3211 46.5346 47.1797 45.5199 47.1799C42.7958 47.2206 40.1811 48.2582 38.1702 50.0964C36.1594 51.9345 34.8918 54.4459 34.6073 57.1554C34.3228 59.8649 35.0411 62.5847 36.6263 64.8005C38.2115 67.0162 40.5537 68.5743 43.2099 69.1799L85.0899 69.1699C87.5261 68.5852 89.6941 67.1963 91.2436 65.2276C92.7932 63.2589 93.6339 60.8253 93.6299 58.3199Z" fill="white" stroke="#263238" stroke-miterlimit="10"/>
<path d="M103.6 63.8498C103.601 62.9938 103.402 62.1495 103.018 61.3846C102.633 60.6197 102.075 59.9557 101.387 59.446C100.699 58.9363 99.9017 58.5951 99.0581 58.4499C98.2145 58.3047 97.3486 58.3595 96.53 58.6098C95.9881 57.0344 94.9679 55.6674 93.6117 54.6998C92.2555 53.7321 90.6311 53.2119 88.965 53.2119C87.299 53.2119 85.6745 53.7321 84.3183 54.6998C82.9622 55.6674 81.9419 57.0344 81.4 58.6098C80.6917 58.4098 79.9503 58.3545 79.2201 58.4473C78.4899 58.54 77.7859 58.7789 77.1501 59.1497C76.5142 59.5205 75.9596 60.0156 75.5193 60.6054C75.079 61.1952 74.762 61.8677 74.5873 62.5827C74.4126 63.2978 74.3837 64.0407 74.5024 64.7671C74.621 65.4935 74.8848 66.1886 75.278 66.8108C75.6712 67.4331 76.1857 67.9697 76.7908 68.3888C77.3959 68.8078 78.0793 69.1007 78.8 69.2498H99.4C100.609 68.9596 101.683 68.267 102.446 67.2857C103.209 66.3045 103.616 65.0929 103.6 63.8498Z" fill="white" stroke="#263238" stroke-miterlimit="10"/>
<path d="M398.19 121.9C398.19 120.161 397.783 118.446 397.001 116.893C396.219 115.339 395.084 113.991 393.687 112.955C392.291 111.918 390.671 111.224 388.957 110.926C387.244 110.628 385.485 110.736 383.82 111.24C382.694 108.07 380.615 105.326 377.869 103.383C375.123 101.44 371.844 100.393 368.48 100.386C365.116 100.378 361.832 101.41 359.077 103.341C356.322 105.271 354.231 108.006 353.09 111.17C352.115 110.891 351.105 110.75 350.09 110.75C347.366 110.791 344.751 111.828 342.741 113.666C340.73 115.505 339.462 118.016 339.178 120.725C338.893 123.435 339.611 126.155 341.197 128.371C342.782 130.586 345.124 132.144 347.78 132.75L389.66 132.67C392.081 132.087 394.237 130.709 395.783 128.757C397.329 126.804 398.177 124.39 398.19 121.9Z" fill="white" stroke="#263238" stroke-miterlimit="10"/>
<path d="M408.16 127.44C408.16 125.987 407.583 124.593 406.555 123.565C405.527 122.537 404.133 121.96 402.68 121.96C402.143 121.953 401.607 122.023 401.09 122.17C400.548 120.594 399.528 119.228 398.172 118.26C396.816 117.292 395.191 116.772 393.525 116.772C391.859 116.772 390.234 117.292 388.878 118.26C387.522 119.228 386.502 120.594 385.96 122.17C385.485 122.037 384.994 121.97 384.5 121.97C383.146 121.97 381.84 122.471 380.834 123.378C379.827 124.284 379.192 125.53 379.051 126.877C378.909 128.223 379.271 129.575 380.067 130.67C380.862 131.766 382.036 132.528 383.36 132.81H403.97C405.172 132.519 406.24 131.83 407.001 130.855C407.761 129.88 408.17 128.676 408.16 127.44Z" fill="white" stroke="#263238" stroke-miterlimit="10"/>
<path d="M78.2901 220.1C78.293 218.36 77.8883 216.645 77.1082 215.09C76.3281 213.535 75.1945 212.185 73.7982 211.147C72.402 210.11 70.782 209.414 69.0682 209.116C67.3545 208.818 65.5947 208.925 63.9301 209.43C62.8065 206.254 60.7276 203.503 57.9786 201.556C55.2296 199.608 51.9452 198.559 48.5763 198.553C45.2073 198.546 41.9189 199.582 39.1623 201.519C36.4057 203.456 34.316 206.198 33.1801 209.37C32.2035 209.096 31.1944 208.955 30.1801 208.95C27.456 208.991 24.8412 210.028 22.8304 211.866C20.8195 213.705 19.552 216.216 19.2675 218.925C18.983 221.635 19.7012 224.355 21.2864 226.571C22.8716 228.786 25.2138 230.344 27.8701 230.95L69.7501 230.87C72.1755 230.293 74.3365 228.918 75.8855 226.964C77.4345 225.011 78.2814 222.593 78.2901 220.1Z" fill="white" stroke="#263238" stroke-miterlimit="10"/>
<path d="M88.2603 225.63C88.2603 224.177 87.683 222.783 86.6553 221.755C85.6276 220.727 84.2337 220.15 82.7803 220.15C82.242 220.15 81.7065 220.227 81.1903 220.38C80.6463 218.808 79.6257 217.445 78.2708 216.48C76.9158 215.515 75.2937 214.997 73.6303 214.997C71.9669 214.997 70.3449 215.515 68.9899 216.48C67.6349 217.445 66.6144 218.808 66.0703 220.38C65.3638 220.185 64.6253 220.134 63.8986 220.229C63.1719 220.324 62.4717 220.565 61.8395 220.935C61.2073 221.306 60.6558 221.8 60.2179 222.388C59.7799 222.975 59.4642 223.645 59.2896 224.357C59.115 225.069 59.085 225.808 59.2013 226.532C59.3176 227.256 59.5779 227.949 59.9667 228.57C60.3556 229.191 60.8652 229.728 61.4653 230.149C62.0653 230.57 62.7437 230.866 63.4603 231.02H84.0703C85.2755 230.728 86.3461 230.036 87.1072 229.057C87.8683 228.078 88.2748 226.87 88.2603 225.63Z" fill="white" stroke="#263238" stroke-miterlimit="10"/>
<path d="M272.804 131.409C272.804 131.409 266.807 129.028 253.489 142.324C253.489 142.324 239.624 154.221 247.036 159.219C253.343 163.473 261.666 157.381 266.062 153.394C268.574 151.046 270.803 148.414 272.703 145.55C275.739 140.866 277.545 134.679 272.804 131.409Z" fill="#F4B740"/>
<path opacity="0.4" d="M272.804 131.409C272.804 131.409 266.807 129.028 253.489 142.324C253.489 142.324 239.624 154.221 247.036 159.219C253.343 163.473 261.666 157.381 266.062 153.394C268.574 151.046 270.803 148.414 272.703 145.55C275.739 140.866 277.545 134.679 272.804 131.409Z" fill="black"/>
<path d="M272.349 131.239C272.349 131.239 264.914 127.132 251.574 140.428C251.574 140.428 238.693 154.131 246.544 158.424C251.921 161.366 259.757 155.485 264.153 151.497C266.462 149.408 269.567 146.135 271.264 143.516C274.306 138.83 275.986 133.55 272.349 131.239Z" fill="#F4B740"/>
<path opacity="0.2" d="M263.362 148.949C269.182 143.14 272.059 136.594 269.788 134.328C267.517 132.061 260.958 134.933 255.138 140.741C249.318 146.55 246.441 153.096 248.711 155.362C250.982 157.629 257.541 154.757 263.362 148.949Z" fill="white"/>
<path d="M266.923 138.293L265.051 140.163L264.568 139.681L266.392 137.867L265.445 136.925L263.499 138.867L262.755 138.127L252.87 147.992L253.371 148.492L251.361 150.371L252.455 151.462L254.423 149.498L254.729 149.803L252.818 151.711L253.865 152.756L256.113 150.528C256.113 150.528 256.931 151.379 259.75 148.972C261.898 147.139 261.456 145.364 261.456 145.364C261.456 145.364 262.532 145.493 264.126 144.234C265.103 143.425 265.776 142.309 266.035 141.069L267.872 139.238L266.923 138.293ZM258.773 147.726C257.181 149.085 255.853 147.289 255.853 147.289L258.3 144.845C258.3 144.845 260.367 146.368 258.773 147.726ZM262.659 143.579C261.128 144.838 260.253 143.049 260.253 143.049L262.364 140.94C262.364 140.94 264.424 142.136 262.659 143.586V143.579Z" fill="#F4B740"/>
<path opacity="0.4" d="M266.923 138.293L265.051 140.163L264.568 139.681L266.392 137.867L265.445 136.925L263.499 138.867L262.755 138.127L252.87 147.992L253.371 148.492L251.361 150.371L252.455 151.462L254.423 149.498L254.729 149.803L252.818 151.711L253.865 152.756L256.113 150.528C256.113 150.528 256.931 151.379 259.75 148.972C261.898 147.139 261.456 145.364 261.456 145.364C261.456 145.364 262.532 145.493 264.126 144.234C265.103 143.425 265.776 142.309 266.035 141.069L267.872 139.238L266.923 138.293ZM258.773 147.726C257.181 149.085 255.853 147.289 255.853 147.289L258.3 144.845C258.3 144.845 260.367 146.368 258.773 147.726ZM262.659 143.579C261.128 144.838 260.253 143.049 260.253 143.049L262.364 140.94C262.364 140.94 264.424 142.136 262.659 143.586V143.579Z" fill="black"/>
<path d="M265.913 137.773L264.038 139.642L263.557 139.162L265.375 137.348L264.423 136.403L262.477 138.347L261.736 137.608L251.851 147.47L252.352 147.97L250.34 149.851L251.433 150.943L253.401 148.978L253.708 149.284L251.796 151.189L252.846 152.235L255.09 149.995C255.09 149.995 255.905 150.847 258.724 148.441C260.872 146.608 260.43 144.834 260.43 144.834C260.43 144.834 261.506 144.963 263.1 143.703C264.077 142.894 264.75 141.779 265.012 140.539L266.846 138.705L265.913 137.773ZM257.762 147.206C256.168 148.564 254.84 146.77 254.84 146.77L257.296 144.319C257.296 144.319 259.354 145.849 257.762 147.206ZM261.646 143.059C260.115 144.319 259.24 142.529 259.24 142.529L261.362 140.427C261.362 140.427 263.402 141.617 261.646 143.066V143.059Z" fill="#F4B740"/>
<path d="M271.492 130.932C271.492 130.966 270.912 130.849 269.865 130.801C268.386 130.744 266.907 130.905 265.475 131.276C264.487 131.529 263.521 131.862 262.587 132.269C261.515 132.741 260.481 133.294 259.494 133.924C257.397 135.233 255.302 137.001 253.2 138.943C248.969 142.798 246.073 147.252 244.814 150.764C244.193 152.523 244.066 154.064 244.239 155.09L244.293 155.452L244.372 155.766C244.396 155.864 244.42 155.954 244.44 156.037C244.46 156.12 244.495 156.187 244.516 156.255C244.573 156.385 244.616 156.52 244.643 156.659C244.567 156.539 244.503 156.412 244.453 156.279C244.425 156.216 244.39 156.146 244.359 156.061C244.328 155.976 244.306 155.888 244.276 155.792C244.245 155.696 244.21 155.589 244.18 155.476C244.149 155.362 244.131 155.238 244.107 155.107C243.889 154.066 243.983 152.488 244.586 150.683C245.804 147.099 248.7 142.582 252.969 138.69C255.077 136.739 257.196 134.98 259.328 133.653C260.332 133.021 261.384 132.469 262.475 132.003C263.427 131.599 264.412 131.276 265.419 131.036C266.875 130.68 268.378 130.553 269.873 130.661C270.138 130.676 270.37 130.709 270.573 130.737C270.744 130.757 270.913 130.785 271.08 130.822C271.221 130.845 271.359 130.881 271.492 130.932Z" fill="#FAFAFA"/>
<path opacity="0.4" d="M248.412 154.993C248.412 154.993 244.455 150.192 254.388 140.032C264.321 129.873 269.788 134.327 269.788 134.327C269.788 134.327 265.257 130.659 254.841 140.999C245.772 150.004 248.412 154.993 248.412 154.993Z" fill="black"/>
<path d="M264.642 136.403C264.488 136.616 264.308 136.81 264.106 136.979C263.745 137.33 263.216 137.83 262.56 138.441L262.466 138.529L262.379 138.426L261.799 137.721H262.018C261.012 138.742 259.778 139.982 258.438 141.309C256.688 143.038 255.096 144.583 253.931 145.7C253.347 146.257 252.87 146.702 252.538 147.01C252.376 147.178 252.193 147.325 251.993 147.446C252.12 147.248 252.271 147.067 252.444 146.907C252.75 146.575 253.198 146.104 253.756 145.528C254.878 144.373 256.446 142.793 258.193 141.065C259.534 139.738 260.782 138.515 261.814 137.52L261.928 137.411L262.022 137.531L262.578 138.278L262.396 138.265C263.074 137.677 263.627 137.206 264.017 136.885C264.206 136.701 264.416 136.539 264.642 136.403Z" fill="#FAFAFA"/>
<path d="M261.909 142.959C261.942 142.99 261.909 143.099 261.778 143.227C261.61 143.392 261.404 143.512 261.178 143.577C260.954 143.644 260.715 143.655 260.485 143.607C260.31 143.566 260.218 143.496 260.227 143.452C260.251 143.358 260.643 143.385 261.082 143.249C261.522 143.114 261.839 142.891 261.909 142.959Z" fill="#FAFAFA"/>
<path d="M257.275 147.56C257.301 147.597 257.262 147.68 257.155 147.778C257.01 147.886 256.84 147.956 256.661 147.981C256.482 148.006 256.3 147.985 256.131 147.92C256.004 147.865 255.943 147.795 255.958 147.752C255.993 147.662 256.282 147.693 256.614 147.643C256.947 147.593 257.207 147.483 257.275 147.56Z" fill="#FAFAFA"/>
<path d="M265.801 146.685C265.871 146.741 265.121 147.743 263.973 148.767C262.825 149.79 261.749 150.428 261.699 150.353C261.648 150.279 262.619 149.522 263.746 148.514C264.872 147.505 265.736 146.621 265.801 146.685Z" fill="#FAFAFA"/>
<path d="M253.465 160.539C253.444 160.523 253.426 160.504 253.41 160.483L253.27 160.321C253.154 160.177 252.995 159.976 252.833 159.751C252.611 159.489 252.416 159.205 252.253 158.902C252.506 159.135 252.731 159.397 252.923 159.682C253.253 160.125 253.511 160.515 253.465 160.539Z" fill="#263238"/>
<path d="M250.242 160.539C250.224 160.526 250.209 160.511 250.196 160.493L250.08 160.36C249.986 160.247 249.861 160.085 249.719 159.906C249.537 159.698 249.383 159.467 249.26 159.219C249.472 159.397 249.657 159.605 249.809 159.836C250.084 160.197 250.29 160.515 250.242 160.539Z" fill="#263238"/>
<path d="M256.114 159.854C255.845 159.588 255.604 159.295 255.394 158.981C255.154 158.69 254.945 158.375 254.769 158.042C255.035 158.31 255.276 158.602 255.486 158.915C255.726 159.207 255.936 159.521 256.114 159.854Z" fill="#263238"/>
<path d="M258.556 158.778C258.271 158.492 258.015 158.179 257.791 157.844C257.535 157.532 257.309 157.196 257.115 156.842C257.4 157.128 257.656 157.441 257.881 157.776C258.136 158.089 258.362 158.424 258.556 158.778Z" fill="#263238"/>
<path d="M261.082 157.182C260.797 156.896 260.54 156.583 260.314 156.248C260.058 155.936 259.833 155.6 259.641 155.244C259.924 155.532 260.18 155.846 260.406 156.181C260.662 156.493 260.888 156.828 261.082 157.182Z" fill="#263238"/>
<path d="M263.35 155.491C263.064 155.205 262.807 154.892 262.582 154.557C262.326 154.245 262.101 153.91 261.909 153.555C262.192 153.842 262.449 154.155 262.674 154.489C262.93 154.802 263.156 155.137 263.35 155.491Z" fill="#263238"/>
<path d="M265.617 153.8C265.332 153.514 265.075 153.201 264.85 152.866C264.594 152.554 264.368 152.218 264.176 151.864C264.46 152.151 264.716 152.464 264.942 152.798C265.197 153.111 265.423 153.446 265.617 153.8Z" fill="#263238"/>
<path d="M267.595 151.718C267.31 151.432 267.054 151.119 266.829 150.784C266.573 150.472 266.347 150.137 266.156 149.782C266.439 150.069 266.696 150.381 266.921 150.716C267.176 151.029 267.401 151.364 267.595 151.718Z" fill="#263238"/>
<path d="M269.53 149.583C269.247 149.295 268.991 148.983 268.764 148.649C268.508 148.337 268.282 148.001 268.091 147.645C268.374 147.933 268.63 148.247 268.856 148.581C269.113 148.893 269.338 149.228 269.53 149.583Z" fill="#263238"/>
<path d="M271.421 147.39C271.138 147.102 270.882 146.79 270.656 146.455C270.4 146.144 270.175 145.808 269.982 145.454C270.266 145.741 270.522 146.053 270.748 146.388C271.004 146.7 271.229 147.035 271.421 147.39Z" fill="#263238"/>
<path d="M273.07 145.059C272.783 144.773 272.523 144.46 272.296 144.125C272.046 143.812 271.827 143.477 271.64 143.123C271.924 143.41 272.18 143.723 272.406 144.057C272.657 144.37 272.879 144.705 273.07 145.059Z" fill="#263238"/>
<path d="M274.511 142.366C274.226 142.079 273.969 141.765 273.744 141.429C273.488 141.118 273.262 140.782 273.07 140.427C273.353 140.715 273.609 141.028 273.836 141.362C274.092 141.675 274.318 142.011 274.511 142.366Z" fill="#263238"/>
<path d="M275.334 139.461C275.077 139.208 274.846 138.931 274.645 138.631C274.413 138.354 274.213 138.053 274.046 137.732C274.302 137.985 274.533 138.264 274.733 138.564C274.965 138.84 275.166 139.141 275.334 139.461Z" fill="#263238"/>
<path d="M275.701 136.582C275.443 136.33 275.212 136.052 275.013 135.752C274.784 135.474 274.584 135.174 274.416 134.855C274.675 135.106 274.906 135.384 275.104 135.685C275.334 135.962 275.534 136.263 275.701 136.582Z" fill="#263238"/>
<path d="M61.75 142.452C69.6201 134.598 69.6201 121.864 61.75 114.01C53.8799 106.155 41.1201 106.155 33.25 114.01C25.3799 121.864 25.3799 134.598 33.25 142.452C41.1201 150.307 53.8799 150.307 61.75 142.452Z" fill="#F4B740"/>
<path opacity="0.2" d="M61.75 142.452C69.6201 134.598 69.6201 121.864 61.75 114.01C53.8799 106.155 41.1201 106.155 33.25 114.01C25.3799 121.864 25.3799 134.598 33.25 142.452C41.1201 150.307 53.8799 150.307 61.75 142.452Z" fill="white"/>
<path d="M51.834 108.591C52.1126 108.894 52.3404 109.24 52.5086 109.616C52.736 109.956 52.9056 110.33 53.0107 110.725C52.7334 110.427 52.5057 110.086 52.3361 109.715C52.1071 109.371 51.9374 108.991 51.834 108.591Z" fill="#263238"/>
<path d="M55.1377 109.685C55.4065 109.97 55.6266 110.297 55.7893 110.653C56.007 110.977 56.1678 111.337 56.2645 111.716C55.9957 111.431 55.7756 111.104 55.613 110.748C55.3945 110.424 55.2337 110.064 55.1377 109.685Z" fill="#263238"/>
<path d="M58.1582 111.173C58.4299 111.455 58.6504 111.783 58.8098 112.141C59.0296 112.465 59.1917 112.825 59.2889 113.204C59.0172 112.921 58.7967 112.594 58.6373 112.236C58.4186 111.911 58.2567 111.552 58.1582 111.173Z" fill="#263238"/>
<path d="M48.335 108.124C48.6122 108.423 48.8399 108.764 49.0095 109.134C49.2369 109.474 49.4066 109.849 49.5116 110.243C49.2343 109.945 49.0066 109.604 48.837 109.234C48.609 108.894 48.4393 108.519 48.335 108.124Z" fill="#263238"/>
<path d="M45.0806 108.266C45.3583 108.563 45.5849 108.905 45.7513 109.276C45.9769 109.616 46.1465 109.991 46.2534 110.385C45.973 110.088 45.7437 109.747 45.575 109.375C45.3521 109.034 45.1852 108.66 45.0806 108.266Z" fill="#263238"/>
<path d="M41.8843 108.973C42.1601 109.265 42.3878 109.598 42.5589 109.96C42.784 110.291 42.9524 110.657 43.0571 111.043C42.7808 110.753 42.553 110.421 42.3825 110.06C42.1577 109.727 41.9893 109.36 41.8843 108.973Z" fill="#263238"/>
<path d="M38.9443 109.96C39.2234 110.257 39.4513 110.599 39.6189 110.97C39.8445 111.311 40.014 111.685 40.121 112.079C39.841 111.781 39.6118 111.438 39.4426 111.066C39.2187 110.726 39.0505 110.353 38.9443 109.96Z" fill="#263238"/>
<path d="M36.1353 111.563C36.4152 111.86 36.6432 112.201 36.8098 112.573C37.0372 112.912 37.2069 113.287 37.3119 113.682C37.036 113.384 36.8084 113.044 36.6373 112.676C36.4103 112.335 36.2407 111.959 36.1353 111.563Z" fill="#263238"/>
<path d="M33.686 113.533C33.9626 113.833 34.1902 114.175 34.3606 114.546C34.5876 114.885 34.7572 115.258 34.8627 115.652C34.5855 115.353 34.3577 115.012 34.1881 114.642C33.9607 114.302 33.7911 113.928 33.686 113.533Z" fill="#263238"/>
<path d="M31.7466 115.606C32.0231 115.907 32.2508 116.249 32.4212 116.62C32.6481 116.958 32.8178 117.332 32.9233 117.725C32.646 117.426 32.4183 117.086 32.2487 116.715C32.0213 116.376 31.8516 116.001 31.7466 115.606Z" fill="#263238"/>
<path d="M30.0986 118.249C30.3861 118.56 30.624 118.914 30.8038 119.297C31.0377 119.649 31.2137 120.037 31.3251 120.445C31.0403 120.133 30.8051 119.779 30.6275 119.397C30.391 119.045 30.2124 118.657 30.0986 118.249Z" fill="#263238"/>
<path d="M28.7036 121.091C28.9889 121.401 29.2243 121.753 29.4012 122.135C29.6312 122.49 29.8069 122.877 29.9224 123.283C29.6357 122.974 29.4002 122.622 29.2249 122.239C28.9903 121.887 28.8142 121.499 28.7036 121.091Z" fill="#263238"/>
<path d="M27.7646 124.151C28.0486 124.456 28.2968 124.792 28.5044 125.154C28.7742 125.48 28.982 125.854 29.1176 126.255C28.8203 125.959 28.5626 125.626 28.3511 125.264C28.0805 124.938 27.8808 124.559 27.7646 124.151Z" fill="#263238"/>
<path d="M27.3545 127.548C27.6664 127.907 27.9246 128.309 28.121 128.741C28.3768 129.135 28.5767 129.563 28.7151 130.011C28.4039 129.659 28.1457 129.263 27.9486 128.837C27.6918 128.437 27.4919 128.003 27.3545 127.548Z" fill="#263238"/>
<path d="M27.7378 132.126C28.0684 132.504 28.348 132.923 28.5695 133.373C28.8499 133.791 29.0729 134.243 29.2325 134.72C28.9015 134.342 28.6207 133.923 28.397 133.473C28.1187 133.055 27.897 132.602 27.7378 132.126Z" fill="#263238"/>
<path d="M54.3323 149.665C65.0485 146.665 71.2988 135.563 68.2927 124.868C65.2865 114.174 54.1623 107.936 43.446 110.936C32.7297 113.936 26.4794 125.038 29.4856 135.733C32.4918 146.428 43.616 152.665 54.3323 149.665Z" fill="#F4B740"/>
<path opacity="0.2" d="M50.0502 144.998C58.4991 144.277 64.7768 137.025 64.0718 128.802C63.3668 120.578 55.9462 114.496 47.4973 115.218C39.0484 115.939 32.7707 123.19 33.4757 131.414C34.1807 139.638 41.6013 145.719 50.0502 144.998Z" fill="white"/>
<path d="M50.0481 144.929C46.0679 145.274 42.1098 144.056 39.0166 141.532C35.9233 139.009 33.9392 135.38 33.4868 131.419C33.4868 131.564 33.4868 131.709 33.5136 131.855C33.8608 135.903 35.8049 139.647 38.9183 142.264C40.4599 143.56 42.2421 144.54 44.1633 145.149C46.0844 145.757 48.1069 145.982 50.1151 145.811C52.1234 145.639 54.0781 145.074 55.8677 144.149C57.6573 143.223 59.2468 141.955 60.5453 140.417C61.8438 138.878 62.826 137.1 63.4357 135.182C64.0454 133.265 64.2708 131.247 64.0989 129.242C64.0989 129.097 64.0682 128.952 64.0529 128.81C64.2809 132.788 62.9452 136.697 60.3298 139.707C57.7145 142.717 54.0258 144.591 50.0481 144.929Z" fill="#FAFAFA"/>
<path opacity="0.3" d="M47.507 115.277C51.4877 114.934 55.4454 116.155 58.5373 118.681C61.6292 121.206 63.611 124.837 64.0606 128.799C64.0606 128.653 64.0606 128.508 64.0338 128.363C63.6866 124.315 61.7425 120.571 58.6292 117.953C55.5158 115.336 51.4881 114.06 47.4323 114.407C43.3764 114.753 39.6246 116.694 37.0021 119.801C34.3797 122.908 33.1014 126.927 33.4485 130.975C33.4485 131.12 33.4792 131.266 33.4945 131.407C33.2635 127.427 34.5989 123.513 37.2161 120.5C39.8334 117.487 43.5258 115.613 47.507 115.277Z" fill="black"/>
<path d="M55.8429 132.735C55.6589 130.593 54.5129 129.292 52.9568 128.852C53.984 128.087 54.6011 126.768 54.4554 125.073C54.2753 122.962 52.9683 121.569 50.6993 121.248L50.477 118.647L48.0701 118.854L48.277 121.271L46.9126 121.386L46.7018 118.968L44.2948 119.179L44.5056 121.596L42.3095 121.784L40.7764 121.914L40.9833 124.316L42.5164 124.186L43.5206 135.867L41.8304 136.013L42.0373 138.415L43.7237 138.269L45.9199 138.082L46.1614 140.897L48.5683 140.691L48.3269 137.879L49.6913 137.761L49.9328 140.572L52.3398 140.369L52.0906 137.462C54.7735 136.858 56.0498 135.175 55.8429 132.735ZM45.5673 123.937L48.8175 123.654C50.6227 123.501 51.715 124.167 51.8453 125.697C51.9756 127.227 51.0136 128.045 49.2046 128.198L45.5098 128.516L45.1265 123.971L45.5673 123.937ZM50.3506 135.294L46.4105 135.626L46.1307 135.649L45.7244 130.891L49.9405 130.531C51.9105 130.363 53.0373 131.002 53.1791 132.65C53.3209 134.299 52.3206 135.125 50.3506 135.294Z" fill="#F4B740"/>
<path opacity="0.3" d="M55.8429 132.735C55.6589 130.593 54.5129 129.292 52.9568 128.852C53.984 128.087 54.6011 126.768 54.4554 125.073C54.2753 122.962 52.9683 121.569 50.6993 121.248L50.477 118.647L48.0701 118.854L48.277 121.271L46.9126 121.386L46.7018 118.968L44.2948 119.179L44.5056 121.596L42.3095 121.784L40.7764 121.914L40.9833 124.316L42.5164 124.186L43.5206 135.867L41.8304 136.013L42.0373 138.415L43.7237 138.269L45.9199 138.082L46.1614 140.897L48.5683 140.691L48.3269 137.879L49.6913 137.761L49.9328 140.572L52.3398 140.369L52.0906 137.462C54.7735 136.858 56.0498 135.175 55.8429 132.735ZM45.5673 123.937L48.8175 123.654C50.6227 123.501 51.715 124.167 51.8453 125.697C51.9756 127.227 51.0136 128.045 49.2046 128.198L45.5098 128.516L45.1265 123.971L45.5673 123.937ZM50.3506 135.294L46.4105 135.626L46.1307 135.649L45.7244 130.891L49.9405 130.531C51.9105 130.363 53.0373 131.002 53.1791 132.65C53.3209 134.299 52.3206 135.125 50.3506 135.294Z" fill="black"/>
<path d="M55.9544 133.867C55.7704 131.721 54.6244 130.424 53.0683 129.984C54.0955 129.219 54.7126 127.9 54.5669 126.201C54.3868 124.094 53.0798 122.701 50.8109 122.376L50.5886 119.771L48.1816 119.978L48.3886 122.395L47.0241 122.514L46.8171 120.097L44.4063 120.303L44.6018 122.736L42.4057 122.923L40.8726 123.053L41.0795 125.456L42.6126 125.325L43.6168 137.007L41.9266 137.153L42.1335 139.555L43.8199 139.409L46.0123 139.222L46.2537 142.033L48.6607 141.827L48.4192 139.015L49.7837 138.901L50.0251 141.712L52.4321 141.505L52.183 138.602C54.8851 137.99 56.1614 136.307 55.9544 133.867ZM45.6788 125.069L48.9405 124.79C50.7495 124.633 51.838 125.299 51.9683 126.833C52.0987 128.366 51.1366 129.181 49.3276 129.334L45.6328 129.652L45.2496 125.104L45.6788 125.069ZM50.4621 136.426L46.5182 136.774L46.2384 136.797L45.8321 132.042L50.0481 131.66C52.0182 131.491 53.145 132.13 53.2868 133.783C53.4286 135.435 52.4321 136.254 50.4621 136.422V136.426Z" fill="#F4B740"/>
<path d="M43.4901 136.847C43.3253 136.847 42.9727 134.311 42.7006 131.147C42.4285 127.984 42.3441 125.41 42.5089 125.41C42.6738 125.41 43.0264 127.949 43.2985 131.113C43.5706 134.276 43.655 136.835 43.4901 136.847Z" fill="#FAFAFA"/>
<path d="M50.5502 129.246C50.5502 129.411 49.5345 129.629 48.2505 129.743C46.9666 129.858 45.9164 129.808 45.901 129.644C45.8857 129.479 46.9167 129.261 48.2007 129.15C49.4847 129.04 50.5348 129.082 50.5502 129.246Z" fill="#FAFAFA"/>
<path d="M51.2513 136.391C51.2513 136.556 50.2357 136.774 48.9517 136.889C47.6677 137.003 46.6176 136.954 46.6022 136.789C46.5869 136.625 47.6179 136.407 48.9019 136.292C50.1858 136.177 51.236 136.208 51.2513 136.391Z" fill="#FAFAFA"/>
<path d="M224.582 333.373C233.097 324.874 233.097 311.096 224.582 302.598C216.067 294.1 202.261 294.1 193.745 302.598C185.23 311.096 185.23 324.874 193.745 333.373C202.261 341.871 216.067 341.871 224.582 333.373Z" fill="#F4B740"/>
<path opacity="0.4" d="M224.582 333.373C233.097 324.874 233.097 311.096 224.582 302.598C216.067 294.1 202.261 294.1 193.745 302.598C185.23 311.096 185.23 324.874 193.745 333.373C202.261 341.871 216.067 341.871 224.582 333.373Z" fill="black"/>
<path d="M223.255 331.085C231.77 322.587 231.77 308.808 223.255 300.31C214.739 291.812 200.934 291.812 192.418 300.31C183.903 308.808 183.903 322.587 192.418 331.085C200.934 339.583 214.739 339.583 223.255 331.085Z" fill="#F4B740"/>
<path opacity="0.2" d="M209.283 331.576C218.416 330.691 225.118 322.768 224.253 313.88C223.387 304.992 215.282 298.505 206.149 299.39C197.016 300.276 190.314 308.199 191.179 317.087C192.045 325.975 200.15 332.462 209.283 331.576Z" fill="white"/>
<path d="M209.28 331.507C204.978 331.924 200.683 330.65 197.307 327.957C193.932 325.263 191.741 321.362 191.202 317.083C191.202 317.24 191.22 317.398 191.235 317.555C191.661 321.931 193.811 325.959 197.213 328.752C200.615 331.545 204.989 332.876 209.374 332.45C213.758 332.025 217.794 329.879 220.593 326.484C223.392 323.089 224.725 318.724 224.299 314.348C224.281 314.19 224.259 314.035 224.241 313.878C224.537 318.182 223.14 322.431 220.346 325.723C217.552 329.015 213.582 331.09 209.28 331.507Z" fill="#FAFAFA"/>
<path opacity="0.3" d="M206.156 299.447C210.458 299.03 214.753 300.304 218.129 302.997C221.505 305.69 223.696 309.591 224.236 313.87C224.224 313.713 224.216 313.558 224.201 313.398C223.775 309.022 221.624 304.995 218.223 302.201C214.821 299.408 210.447 298.078 206.062 298.503C201.678 298.928 197.642 301.074 194.843 304.469C192.044 307.864 190.711 312.23 191.137 316.605C191.155 316.765 191.177 316.92 191.197 317.075C190.901 312.772 192.298 308.523 195.091 305.231C197.885 301.939 201.854 299.864 206.156 299.447Z" fill="black"/>
<path d="M216.792 319.34C216.566 317.023 215.314 315.63 213.623 315.176C214.725 314.323 215.377 312.898 215.196 311.066C214.976 308.788 213.546 307.296 211.088 306.989L210.813 304.176L208.213 304.426L208.463 307.041L206.998 307.196L206.747 304.581L204.145 304.831L204.395 307.446L202.026 307.676L200.375 307.836L200.625 310.433L202.276 310.271L203.491 322.89L201.665 323.067L201.915 325.665L203.742 325.487L206.111 325.257L206.407 328.297L209.009 328.047L208.714 325.007L210.189 324.865L210.505 327.902L213.107 327.652L212.802 324.512C215.69 323.815 217.05 321.98 216.792 319.34ZM205.568 309.946L209.092 309.606C211.046 309.416 212.233 310.123 212.393 311.778C212.554 313.433 211.524 314.328 209.57 314.528L205.563 314.916L205.084 310.003L205.568 309.946ZM210.885 322.178L206.627 322.59L206.327 322.62L205.826 317.478L210.387 317.035C212.516 316.828 213.743 317.505 213.916 319.285C214.089 321.065 213.01 321.968 210.885 322.175V322.178Z" fill="#F4B740"/>
<path opacity="0.3" d="M216.792 319.34C216.566 317.023 215.314 315.63 213.623 315.176C214.725 314.323 215.377 312.898 215.196 311.066C214.976 308.788 213.546 307.296 211.088 306.989L210.813 304.176L208.213 304.426L208.463 307.041L206.998 307.196L206.747 304.581L204.145 304.831L204.395 307.446L202.026 307.676L200.375 307.836L200.625 310.433L202.276 310.271L203.491 322.89L201.665 323.067L201.915 325.665L203.742 325.487L206.111 325.257L206.407 328.297L209.009 328.047L208.714 325.007L210.189 324.865L210.505 327.902L213.107 327.652L212.802 324.512C215.69 323.815 217.05 321.98 216.792 319.34ZM205.568 309.946L209.092 309.606C211.046 309.416 212.233 310.123 212.393 311.778C212.554 313.433 211.524 314.328 209.57 314.528L205.563 314.916L205.084 310.003L205.568 309.946ZM210.885 322.178L206.627 322.59L206.327 322.62L205.826 317.478L210.387 317.035C212.516 316.828 213.743 317.505 213.916 319.285C214.089 321.065 213.01 321.968 210.885 322.175V322.178Z" fill="black"/>
<path d="M215.529 319.463C215.303 317.145 214.049 315.753 212.36 315.298C213.46 314.445 214.114 313.02 213.933 311.188C213.71 308.911 212.283 307.418 209.823 307.111L209.55 304.299L206.947 304.549L207.198 307.163L205.72 307.306L205.469 304.691L202.869 304.941L203.12 307.556L200.75 307.786L199.1 307.946L199.35 310.543L201.001 310.383L202.238 323.015L200.415 323.19L200.665 325.787L202.489 325.61L204.858 325.38L205.156 328.419L207.756 328.169L207.461 325.13L208.939 324.987L209.234 328.027L211.837 327.777L211.529 324.637C214.424 323.945 215.784 322.102 215.529 319.463ZM204.305 310.068L207.826 309.726C209.78 309.536 210.968 310.243 211.13 311.898C211.293 313.553 210.261 314.448 208.305 314.648L204.297 315.035L203.816 310.123L204.305 310.068ZM209.62 322.297L205.362 322.71L205.061 322.74L204.56 317.598L209.124 317.155C211.251 316.948 212.48 317.625 212.653 319.405C212.826 321.185 211.757 322.09 209.62 322.297Z" fill="#F4B740"/>
<path d="M227.537 306.333C227.499 306.288 227.466 306.239 227.44 306.186L227.189 305.733C227.084 305.531 226.939 305.286 226.774 305.004C226.608 304.721 226.413 304.386 226.167 304.031C224.836 301.992 223.172 300.189 221.245 298.696C219.916 297.671 218.475 296.8 216.95 296.099C215.194 295.302 213.342 294.738 211.439 294.424C210.413 294.248 209.376 294.151 208.335 294.134C207.247 294.107 206.158 294.165 205.079 294.309C203.965 294.455 202.864 294.686 201.785 295.002C199.56 295.652 197.453 296.655 195.546 297.972C194.62 298.608 193.746 299.317 192.933 300.091C191.392 301.558 190.075 303.242 189.025 305.091C188.075 306.764 187.349 308.554 186.866 310.416C186.46 312.04 186.239 313.704 186.208 315.378C186.174 316.762 186.277 318.146 186.513 319.51C186.69 320.542 186.941 321.559 187.265 322.555C187.387 322.967 187.515 323.325 187.64 323.637C187.766 323.95 187.858 324.21 187.948 324.42L188.141 324.9C188.167 324.953 188.185 325.011 188.194 325.07C188.158 325.022 188.128 324.971 188.104 324.917L187.876 324.452C187.773 324.247 187.653 323.99 187.533 323.68C187.412 323.37 187.255 323.015 187.122 322.602C186.77 321.607 186.496 320.585 186.303 319.547C186.042 318.172 185.918 316.773 185.935 315.373C185.97 311.705 186.934 308.105 188.737 304.909C189.798 303.025 191.131 301.308 192.695 299.814C193.523 299.025 194.412 298.302 195.353 297.652C197.292 296.31 199.437 295.289 201.703 294.629C202.801 294.309 203.924 294.075 205.059 293.929C206.153 293.787 207.257 293.731 208.36 293.762C209.419 293.783 210.474 293.886 211.516 294.069C215.14 294.679 218.55 296.196 221.426 298.479C222.528 299.347 223.54 300.322 224.447 301.391C225.129 302.194 225.749 303.048 226.3 303.946C226.538 304.309 226.718 304.651 226.879 304.946C227.039 305.241 227.169 305.488 227.264 305.696L227.482 306.168C227.537 306.276 227.553 306.331 227.537 306.333Z" fill="#FAFAFA"/>
<path d="M205.469 304.696C205.469 304.764 204.468 304.921 202.885 305.111L203.03 304.934C203.12 305.683 203.218 306.578 203.318 307.543L203.335 307.736L203.143 307.756L202.441 307.826C201.211 307.946 200.067 308.043 199.117 308.113L199.265 307.938C199.383 309.508 199.423 310.543 199.355 310.551C199.288 310.558 199.13 309.533 198.942 307.968L198.922 307.811L199.087 307.793C200.032 307.678 201.174 307.556 202.404 307.436L203.105 307.371L202.93 307.581C202.839 306.616 202.764 305.718 202.707 304.966V304.801L202.862 304.789C204.432 304.669 205.464 304.629 205.469 304.696Z" fill="#FAFAFA"/>
<path d="M210.101 304.291C210.101 304.399 209.415 304.554 208.546 304.639C207.677 304.724 206.965 304.704 206.955 304.596C206.945 304.489 207.639 304.334 208.508 304.251C209.377 304.169 210.091 304.196 210.101 304.291Z" fill="#FAFAFA"/>
<path d="M202.083 322.845C201.976 322.845 201.617 320.095 201.287 316.673C200.956 313.25 200.771 310.476 200.878 310.466C200.986 310.456 201.342 313.215 201.675 316.635C202.008 320.055 202.191 322.835 202.083 322.845Z" fill="#FAFAFA"/>
<path d="M209.625 314.533C209.625 314.64 208.521 314.838 207.133 314.97C205.745 315.103 204.616 315.128 204.606 315.02C204.596 314.913 205.71 314.718 207.095 314.583C208.481 314.448 209.615 314.425 209.625 314.533Z" fill="#FAFAFA"/>
<path d="M210.472 322.235C210.484 322.342 209.367 322.537 207.982 322.672C206.597 322.807 205.465 322.827 205.452 322.722C205.44 322.617 206.557 322.417 207.945 322.282C209.332 322.147 210.462 322.127 210.472 322.235Z" fill="#FAFAFA"/>
<path d="M204.72 339.291C204.211 338.577 203.775 337.814 203.418 337.014C203.926 337.729 204.362 338.491 204.72 339.291Z" fill="#263238"/>
<path d="M201.131 338.149C200.868 337.82 200.64 337.464 200.45 337.089C200.223 336.734 200.033 336.357 199.884 335.964C200.377 336.646 200.797 337.379 201.136 338.149H201.131Z" fill="#263238"/>
<path d="M197.842 336.576C197.581 336.247 197.353 335.892 197.163 335.516C196.935 335.162 196.745 334.785 196.595 334.392C196.858 334.721 197.086 335.076 197.276 335.451C197.503 335.806 197.693 336.183 197.842 336.576Z" fill="#263238"/>
<path d="M208.501 339.754C208.229 339.409 207.993 339.038 207.794 338.646C207.557 338.277 207.359 337.885 207.201 337.476C207.472 337.82 207.709 338.19 207.907 338.581C208.144 338.951 208.343 339.344 208.501 339.754Z" fill="#263238"/>
<path d="M212.027 339.559C211.519 338.844 211.083 338.081 210.725 337.281C211.234 337.995 211.67 338.758 212.027 339.559Z" fill="#263238"/>
<path d="M215.484 338.806C215.212 338.462 214.974 338.092 214.775 337.701C214.54 337.33 214.342 336.938 214.182 336.529C214.454 336.874 214.692 337.244 214.89 337.636C215.126 338.006 215.324 338.398 215.484 338.806Z" fill="#263238"/>
<path d="M218.645 337.651C218.373 337.307 218.135 336.936 217.936 336.544C217.702 336.174 217.503 335.782 217.343 335.374C217.616 335.718 217.853 336.088 218.052 336.479C218.287 336.85 218.485 337.243 218.645 337.651Z" fill="#263238"/>
<path d="M221.666 335.884C221.394 335.539 221.156 335.168 220.957 334.776C220.722 334.405 220.523 334.013 220.363 333.604C220.636 333.949 220.873 334.32 221.072 334.711C221.308 335.082 221.506 335.475 221.666 335.884Z" fill="#263238"/>
<path d="M224.281 333.719C224.009 333.374 223.772 333.003 223.572 332.612C223.337 332.241 223.138 331.848 222.979 331.439C223.251 331.784 223.489 332.155 223.687 332.547C223.923 332.918 224.122 333.31 224.281 333.719Z" fill="#263238"/>
<path d="M226.363 331.444C226.092 331.099 225.855 330.728 225.656 330.337C225.419 329.967 225.22 329.574 225.062 329.164C225.334 329.509 225.57 329.88 225.769 330.272C226.007 330.641 226.206 331.034 226.363 331.444Z" fill="#263238"/>
<path d="M228.251 328.815C227.744 328.099 227.308 327.335 226.949 326.535C227.221 326.88 227.458 327.251 227.658 327.642C227.894 328.012 228.093 328.405 228.251 328.815Z" fill="#263238"/>
<path d="M229.792 325.83C229.519 325.485 229.282 325.114 229.083 324.722C228.847 324.351 228.649 323.959 228.489 323.55C228.761 323.895 228.999 324.266 229.198 324.657C229.433 325.028 229.632 325.421 229.792 325.83Z" fill="#263238"/>
<path d="M230.768 322.48C230.496 322.135 230.258 321.764 230.059 321.373C229.824 321 229.625 320.606 229.466 320.195C229.738 320.54 229.975 320.911 230.175 321.303C230.41 321.675 230.609 322.069 230.768 322.48Z" fill="#263238"/>
<path d="M231.222 318.925C230.902 318.498 230.618 318.046 230.373 317.573C230.089 317.121 229.844 316.647 229.639 316.155C230.24 317.035 230.769 317.961 231.222 318.925Z" fill="#263238"/>
<path d="M230.731 313.918C230.413 313.491 230.13 313.038 229.884 312.566C229.602 312.114 229.355 311.641 229.148 311.151C229.468 311.577 229.752 312.029 229.997 312.503C230.279 312.954 230.525 313.428 230.731 313.918Z" fill="#263238"/>
<g opacity="0.2">
<path opacity="0.2" d="M193.762 308.588L211.464 306.856L214.086 309.588L214.101 309.606H214.126L219.492 309.051L220.932 308.896L221.303 308.851H221.373C221.377 308.873 221.383 308.895 221.393 308.916C221.43 308.996 221.491 309.063 221.567 309.108C221.644 309.152 221.733 309.171 221.821 309.162C221.91 309.154 221.993 309.118 222.06 309.06C222.127 309.002 222.174 308.924 222.194 308.838C222.21 308.77 222.208 308.698 222.189 308.63C222.169 308.562 222.132 308.5 222.082 308.451C222.014 308.386 221.925 308.349 221.831 308.348C221.769 308.348 221.738 308.366 221.738 308.373C221.738 308.381 221.881 308.373 221.989 308.523C222.02 308.562 222.041 308.608 222.051 308.657C222.061 308.705 222.058 308.756 222.044 308.803C222.028 308.859 221.995 308.909 221.95 308.946C221.905 308.983 221.849 309.006 221.791 309.012C221.733 309.017 221.675 309.006 221.623 308.978C221.572 308.95 221.53 308.908 221.503 308.856C221.48 308.812 221.468 308.763 221.468 308.713C221.468 308.664 221.48 308.615 221.503 308.571C221.591 308.411 221.736 308.398 221.728 308.373C221.721 308.348 221.696 308.356 221.633 308.373C221.543 308.394 221.465 308.447 221.413 308.523C221.381 308.571 221.359 308.625 221.349 308.681C221.339 308.737 221.341 308.795 221.355 308.851H221.285L220.914 308.881L219.472 309.011L214.126 309.511L211.514 306.761L211.494 306.739H211.466L193.747 308.446L187.059 309.098C187.041 309.148 187.026 309.198 187.009 309.248L193.762 308.588Z" fill="white"/>
<path opacity="0.2" d="M221.543 304.431L224.338 307.279L224.358 307.299H224.389L227.803 306.946C227.803 306.921 227.78 306.896 227.77 306.869L224.409 307.171L221.623 304.309L221.598 304.284H221.563L219.336 304.499L211.095 305.321L208.59 305.586L207.914 305.666C207.835 305.672 207.756 305.685 207.679 305.704C207.758 305.71 207.837 305.71 207.917 305.704L208.598 305.651L211.103 305.434L219.349 304.656L221.543 304.431Z" fill="white"/>
<path opacity="0.2" d="M203.671 314.278L205.404 314.998H205.417L208.335 314.73L209.109 314.653H209.162C209.169 314.708 209.198 314.759 209.242 314.794C209.286 314.829 209.341 314.845 209.397 314.84C209.455 314.835 209.508 314.806 209.545 314.762C209.582 314.717 209.599 314.659 209.594 314.602C209.588 314.544 209.56 314.491 209.515 314.454C209.47 314.417 209.412 314.4 209.354 314.405C209.3 314.412 209.249 314.438 209.213 314.48C209.177 314.521 209.157 314.575 209.159 314.63H209.107L208.33 314.683L205.422 314.908L203.691 314.173H203.679H203.663L191.232 315.358L186.876 315.783L186.024 315.37C186.024 315.423 186.024 315.475 186.024 315.528L186.833 315.923H186.851H186.874L191.247 315.5L203.671 314.278Z" fill="white"/>
<path opacity="0.2" d="M205.264 313.171L203.628 312.671H203.613H203.598L202.551 312.778C202.494 312.108 202.439 311.468 202.386 310.863V310.798H202.321L197.524 311.328L196.184 311.486L196.036 311.506C196.027 311.453 195.998 311.405 195.956 311.372C195.913 311.339 195.859 311.324 195.806 311.328C195.748 311.334 195.696 311.362 195.659 311.407C195.622 311.451 195.605 311.508 195.61 311.566C195.614 311.623 195.64 311.676 195.683 311.714C195.726 311.752 195.782 311.771 195.84 311.767C195.897 311.763 195.95 311.737 195.988 311.694C196.026 311.651 196.045 311.595 196.041 311.538L196.189 311.526L197.534 311.403L202.263 310.946C202.31 311.554 202.361 312.194 202.416 312.866V312.936H202.489L203.593 312.826L205.229 313.326H205.244H205.259L207.296 313.128L216.473 312.216L218.174 313.148H218.187H218.199L219.922 312.961L220.378 312.906H220.401C220.437 312.987 220.499 313.055 220.576 313.1C220.653 313.145 220.743 313.164 220.832 313.155C220.921 313.146 221.005 313.11 221.072 313.05C221.139 312.991 221.185 312.913 221.205 312.826C221.221 312.757 221.219 312.686 221.199 312.618C221.18 312.551 221.143 312.49 221.092 312.441C221.025 312.375 220.936 312.337 220.842 312.336C220.779 312.336 220.749 312.353 220.749 312.363C220.749 312.373 220.892 312.363 221 312.513C221.031 312.552 221.053 312.597 221.063 312.646C221.073 312.695 221.071 312.745 221.057 312.793C221.041 312.85 221.008 312.9 220.963 312.938C220.918 312.976 220.862 312.999 220.803 313.005C220.745 313.011 220.686 312.998 220.634 312.97C220.582 312.942 220.54 312.898 220.514 312.846C220.491 312.802 220.479 312.753 220.479 312.703C220.479 312.654 220.491 312.605 220.514 312.561C220.601 312.401 220.747 312.386 220.739 312.363C220.732 312.341 220.704 312.343 220.644 312.363C220.554 312.382 220.475 312.435 220.423 312.511C220.386 312.565 220.363 312.627 220.355 312.693C220.347 312.758 220.355 312.824 220.378 312.886H220.361L219.902 312.918L218.189 313.066L216.516 312.108H216.501H216.483L207.285 312.981L205.264 313.171Z" fill="white"/>
<path opacity="0.2" d="M195.648 329.584C195.581 329.518 195.492 329.481 195.398 329.479C195.335 329.479 195.305 329.497 195.305 329.507C195.305 329.517 195.448 329.507 195.555 329.657C195.586 329.696 195.608 329.741 195.617 329.79C195.627 329.839 195.625 329.889 195.61 329.937C195.594 329.993 195.561 330.043 195.516 330.08C195.471 330.117 195.416 330.14 195.358 330.145C195.299 330.151 195.241 330.139 195.19 330.111C195.138 330.084 195.096 330.041 195.069 329.989C195.047 329.945 195.035 329.897 195.035 329.847C195.035 329.797 195.047 329.748 195.069 329.704C195.157 329.544 195.302 329.529 195.295 329.507C195.287 329.484 195.26 329.487 195.2 329.507C195.11 329.526 195.031 329.579 194.979 329.654C194.939 329.713 194.915 329.781 194.909 329.851C194.903 329.922 194.915 329.992 194.944 330.057C194.98 330.138 195.041 330.206 195.118 330.251C195.195 330.295 195.284 330.315 195.372 330.307C195.461 330.297 195.544 330.261 195.611 330.202C195.678 330.144 195.725 330.066 195.746 329.979C195.746 329.979 195.746 329.979 195.746 329.964H195.811L196.134 329.942L197.356 329.844L201.64 329.457H201.677L201.695 329.422L202.927 326.815V326.797V326.775C202.89 326.38 202.849 325.975 202.809 325.565C202.634 323.802 202.469 322.145 202.328 320.728V320.695L202.301 320.68L200.252 319.338H200.234L198.231 319.555L197.692 319.62H197.619C197.611 319.525 197.569 319.437 197.502 319.37C197.435 319.304 197.345 319.266 197.251 319.265C197.188 319.265 197.158 319.283 197.158 319.293C197.158 319.303 197.301 319.293 197.409 319.443C197.44 319.481 197.46 319.526 197.47 319.575C197.48 319.623 197.478 319.673 197.464 319.72C197.449 319.777 197.417 319.828 197.372 319.866C197.327 319.905 197.271 319.928 197.213 319.934C197.154 319.94 197.095 319.928 197.043 319.9C196.991 319.871 196.949 319.828 196.923 319.775C196.9 319.731 196.888 319.682 196.888 319.633C196.888 319.583 196.9 319.534 196.923 319.49C197.011 319.33 197.156 319.315 197.148 319.293C197.141 319.27 197.113 319.273 197.053 319.293C196.963 319.311 196.884 319.364 196.833 319.44C196.792 319.498 196.767 319.565 196.76 319.635C196.754 319.705 196.766 319.776 196.795 319.84C196.832 319.922 196.893 319.99 196.97 320.034C197.047 320.079 197.136 320.099 197.225 320.09C197.314 320.082 197.398 320.046 197.465 319.987C197.532 319.928 197.579 319.849 197.599 319.763C197.605 319.724 197.605 319.684 197.599 319.645H197.669L198.213 319.605L200.202 319.435C200.775 319.82 201.454 320.275 202.206 320.773C202.341 322.185 202.496 323.832 202.664 325.582C202.704 325.985 202.742 326.382 202.782 326.772L201.585 329.329L197.344 329.769L196.126 329.907L195.806 329.949H195.743C195.758 329.885 195.757 329.819 195.741 329.755C195.724 329.692 195.692 329.633 195.648 329.584Z" fill="white"/>
<path opacity="0.2" d="M218.52 323.317C218.574 323.312 218.624 323.285 218.66 323.244C218.696 323.203 218.715 323.149 218.712 323.095L219.346 323.047L221.691 322.845H221.706H221.718L224.173 320.822L229.135 320.347C229.135 320.295 229.158 320.245 229.17 320.192L224.138 320.692H224.118L224.1 320.707L221.663 322.757L219.341 323.007L218.707 323.085C218.7 323.028 218.671 322.977 218.625 322.942C218.58 322.907 218.523 322.891 218.466 322.898C218.409 322.906 218.357 322.935 218.322 322.981C218.287 323.026 218.272 323.083 218.279 323.14C218.288 323.195 218.319 323.244 218.363 323.277C218.408 323.31 218.464 323.324 218.52 323.317Z" fill="white"/>
<path opacity="0.2" d="M207.2 337.366C207.2 337.291 207.2 337.194 207.183 337.079C207.158 336.741 207.12 336.296 207.08 335.756C206.985 334.644 206.842 333.104 206.677 331.407C206.624 330.877 206.574 330.359 206.524 329.869V329.839L206.501 329.822L203.997 327.79C203.949 327.385 203.909 327.04 203.879 326.79C203.856 326.62 203.839 326.507 203.829 326.457C203.856 326.464 203.884 326.464 203.911 326.457C203.954 326.453 203.995 326.436 204.028 326.409C204.062 326.382 204.086 326.345 204.099 326.304C204.111 326.263 204.111 326.219 204.099 326.178C204.086 326.136 204.062 326.1 204.029 326.073C203.995 326.045 203.955 326.028 203.912 326.024C203.869 326.02 203.826 326.029 203.788 326.049C203.749 326.069 203.718 326.1 203.698 326.138C203.678 326.176 203.669 326.219 203.673 326.262C203.677 326.302 203.692 326.341 203.717 326.373C203.742 326.404 203.776 326.429 203.814 326.442C203.814 326.49 203.814 326.605 203.829 326.785C203.849 327.035 203.874 327.387 203.906 327.805V327.822L203.921 327.837L206.396 329.899C206.441 330.382 206.489 330.887 206.539 331.399C206.704 333.097 206.862 334.634 206.985 335.746C207.047 336.281 207.098 336.724 207.138 337.061L207.175 337.349C207.124 337.357 207.078 337.384 207.045 337.424H207.388C207.363 337.4 207.334 337.383 207.301 337.373C207.268 337.363 207.234 337.361 207.2 337.366Z" fill="white"/>
<path opacity="0.2" d="M197.073 305.279C197.076 305.308 197.084 305.337 197.098 305.364C197.112 305.39 197.132 305.413 197.155 305.431C197.179 305.449 197.206 305.463 197.235 305.47C197.264 305.477 197.294 305.479 197.324 305.474C197.366 305.467 197.405 305.448 197.436 305.42C197.468 305.392 197.49 305.354 197.501 305.313C197.512 305.272 197.51 305.229 197.497 305.189C197.483 305.149 197.458 305.113 197.424 305.087C197.391 305.061 197.35 305.045 197.308 305.042C197.265 305.039 197.223 305.048 197.186 305.068C197.148 305.088 197.118 305.119 197.098 305.156C197.078 305.194 197.069 305.236 197.073 305.279Z" fill="white"/>
<path opacity="0.2" d="M214.379 325.032L214.813 324.987H214.888C214.887 325.001 214.887 325.016 214.888 325.03C214.89 325.058 214.899 325.086 214.912 325.111C214.925 325.137 214.944 325.159 214.966 325.177C214.988 325.195 215.014 325.209 215.041 325.217C215.068 325.225 215.097 325.228 215.126 325.225C215.183 325.218 215.235 325.19 215.272 325.146C215.308 325.101 215.326 325.044 215.321 324.987C215.319 324.934 215.296 324.883 215.258 324.846C215.22 324.808 215.17 324.786 215.116 324.783C215.063 324.781 215.01 324.798 214.969 324.832C214.928 324.866 214.901 324.914 214.893 324.967H214.813L214.377 324.987L212.751 325.09L207.303 325.477C207.228 324.871 207.151 324.246 207.073 323.602C207.05 323.425 207.028 323.247 207.008 323.082L208.961 320.94L208.984 320.917V320.885C208.911 320.188 208.844 319.528 208.784 318.933V318.908L208.763 318.89L208.112 318.36L208.092 318.345H208.07L205.595 318.61L204.919 318.693H204.836C204.828 318.597 204.785 318.508 204.716 318.443C204.649 318.376 204.559 318.339 204.465 318.338C204.403 318.338 204.372 318.355 204.372 318.365C204.372 318.375 204.515 318.365 204.623 318.515C204.67 318.573 204.694 318.646 204.691 318.72H204.668H204.688C204.692 318.741 204.692 318.762 204.688 318.783C204.673 318.839 204.64 318.89 204.595 318.928C204.55 318.966 204.494 318.99 204.436 318.995C204.377 319.001 204.318 318.989 204.266 318.96C204.215 318.932 204.173 318.888 204.147 318.835C204.124 318.791 204.112 318.742 204.112 318.693C204.112 318.643 204.124 318.594 204.147 318.55C204.235 318.393 204.38 318.378 204.372 318.355C204.365 318.333 204.34 318.335 204.277 318.355C204.187 318.373 204.108 318.426 204.057 318.503C204.017 318.561 203.993 318.628 203.987 318.698C203.981 318.768 203.993 318.839 204.022 318.903C204.057 318.984 204.118 319.053 204.195 319.098C204.272 319.143 204.362 319.163 204.451 319.155C204.54 319.146 204.624 319.109 204.691 319.05C204.758 318.991 204.804 318.912 204.823 318.825C204.827 318.791 204.827 318.757 204.823 318.723H204.906L205.585 318.673L208.042 318.458L208.651 318.958C208.703 319.538 208.763 320.178 208.826 320.855L206.862 322.995L206.84 323.02V323.055C206.86 323.23 206.885 323.417 206.907 323.607L207.158 325.552V325.625H207.228L212.739 325.18L214.379 325.032Z" fill="white"/>
<path opacity="0.2" d="M211.123 324.342C211.005 322.922 210.872 321.427 210.755 319.91C210.737 319.7 210.72 319.493 210.705 319.283V319.253L210.68 319.233L208.583 317.43L208.558 317.41H208.525L195.565 318.675H195.548H195.535L187.665 323.947L187.703 324.042L195.595 318.793L208.508 317.543L210.559 319.293C210.574 319.49 210.592 319.688 210.607 319.888C210.737 321.432 210.857 322.952 210.983 324.387V324.462H211.058L228.379 322.962L228.419 322.85L211.123 324.342Z" fill="white"/>
<path opacity="0.2" d="M210.812 316.31C210.86 316.738 210.93 317.343 211.015 318.1V318.118L211.032 318.13L214.72 320.982L214.74 320.997H214.762L219.657 320.53L228.123 319.695L229.3 319.57L229.315 319.482L228.113 319.587L219.647 320.387L214.782 320.865L211.1 318.08C211 317.33 210.92 316.738 210.85 316.313C210.822 316.118 210.797 315.96 210.779 315.84C210.775 315.786 210.764 315.732 210.747 315.68C210.742 315.734 210.742 315.789 210.747 315.843C210.777 315.945 210.792 316.11 210.812 316.31Z" fill="white"/>
<path opacity="0.2" d="M214.973 310.678H214.953L214.935 310.691L213.665 311.583L209.67 311.998L208.525 312.128L208.25 312.165C208.239 312.079 208.198 311.998 208.135 311.938C208.068 311.872 207.978 311.834 207.884 311.833C207.821 311.833 207.789 311.851 207.791 311.861C207.794 311.871 207.934 311.861 208.042 312.01C208.083 312.061 208.105 312.123 208.107 312.188C208.112 312.221 208.112 312.255 208.107 312.288C208.089 312.343 208.057 312.392 208.012 312.429C207.968 312.466 207.914 312.49 207.857 312.498C207.798 312.503 207.74 312.491 207.689 312.463C207.637 312.435 207.595 312.392 207.568 312.34C207.545 312.296 207.533 312.248 207.533 312.198C207.533 312.148 207.545 312.099 207.568 312.055C207.654 311.896 207.801 311.881 207.794 311.858C207.786 311.836 207.759 311.838 207.696 311.858C207.607 311.878 207.528 311.93 207.476 312.005C207.436 312.064 207.412 312.132 207.406 312.202C207.4 312.273 207.412 312.343 207.441 312.408C207.478 312.488 207.539 312.555 207.616 312.599C207.693 312.643 207.782 312.662 207.87 312.654C207.958 312.645 208.042 312.609 208.108 312.55C208.175 312.492 208.222 312.414 208.242 312.328C208.251 312.283 208.251 312.238 208.242 312.193L208.518 312.178L209.665 312.085L213.673 311.723H213.693H213.708L214.98 310.838L217.104 310.673L223.672 310.133L225.661 309.951L226.177 309.898C226.181 309.953 226.206 310.004 226.248 310.041C226.289 310.077 226.342 310.096 226.397 310.094C226.452 310.092 226.504 310.069 226.543 310.029C226.581 309.99 226.602 309.937 226.602 309.882C226.602 309.827 226.581 309.774 226.543 309.735C226.504 309.695 226.452 309.672 226.397 309.67C226.342 309.667 226.289 309.687 226.248 309.723C226.206 309.76 226.181 309.811 226.177 309.866L225.661 309.893L223.657 310.026L217.089 310.526L214.973 310.678Z" fill="white"/>
<path opacity="0.2" d="M204.12 332.469C204.062 331.864 204.002 331.279 203.947 330.719V330.694L203.917 330.674L202.556 329.829L202.536 329.814H202.514L199.39 330.147L198.506 330.252L198.403 330.264C198.394 330.211 198.365 330.163 198.322 330.13C198.279 330.097 198.225 330.082 198.171 330.087C198.115 330.095 198.065 330.124 198.03 330.168C197.995 330.212 197.979 330.268 197.984 330.324C197.99 330.379 198.017 330.431 198.059 330.467C198.102 330.504 198.157 330.522 198.213 330.519C198.267 330.514 198.317 330.488 198.353 330.447C198.389 330.406 198.408 330.354 198.406 330.299H198.509L199.398 330.232L202.504 329.957L203.806 330.782C203.862 331.332 203.917 331.907 203.972 332.497L204.448 337.194L204.563 337.211C204.44 335.899 204.287 334.257 204.12 332.469Z" fill="white"/>
<path opacity="0.2" d="M206.223 336.109L206.244 336.084V336.054C206.016 333.727 205.798 331.537 205.61 329.619V329.592L205.587 329.574L203.676 328.017C203.506 326.375 203.365 325.032 203.268 324.085C203.218 323.627 203.175 323.265 203.147 323.005C203.132 322.892 203.122 322.802 203.112 322.73H203.157C203.2 322.726 203.241 322.709 203.274 322.682C203.308 322.654 203.332 322.618 203.345 322.577C203.357 322.535 203.357 322.492 203.345 322.45C203.332 322.409 203.308 322.373 203.275 322.345C203.241 322.318 203.201 322.301 203.158 322.297C203.115 322.293 203.072 322.301 203.034 322.322C202.996 322.342 202.964 322.373 202.944 322.411C202.924 322.449 202.915 322.492 202.92 322.535C202.924 322.581 202.944 322.624 202.976 322.658C203.007 322.692 203.049 322.714 203.095 322.722C203.095 322.795 203.095 322.887 203.112 323.002C203.135 323.252 203.165 323.627 203.203 324.087C203.29 325.04 203.413 326.392 203.563 328.047V328.069L203.581 328.087L205.48 329.654C205.662 331.559 205.87 333.727 206.091 336.031L205.88 336.281L205.061 337.281L205.239 337.301C205.49 337.006 205.74 336.696 205.991 336.381L206.223 336.109Z" fill="white"/>
<path opacity="0.2" d="M226.212 326.495L215.326 327.53L212.939 327.762H212.887L212.874 327.812L212.123 330.627V330.652C212.373 333.079 212.586 335.217 212.756 336.901L212.849 336.879C212.691 335.202 212.493 333.072 212.265 330.654C212.516 329.779 212.766 328.857 213.017 327.905L215.351 327.68L226.235 326.602L226.753 326.547L226.813 326.442L226.212 326.495Z" fill="white"/>
<path opacity="0.2" d="M212.508 317.76V317.795L212.538 317.815L213.31 318.363L215.471 319.89L215.494 319.905H215.514L221.067 319.34L222.683 319.163L223.051 319.115C223.058 319.172 223.088 319.223 223.133 319.258C223.179 319.293 223.236 319.309 223.293 319.302C223.35 319.294 223.401 319.265 223.436 319.219C223.471 319.174 223.487 319.117 223.479 319.06C223.477 319.032 223.469 319.005 223.455 318.979C223.442 318.954 223.424 318.932 223.402 318.914C223.38 318.896 223.355 318.882 223.328 318.874C223.301 318.865 223.272 318.863 223.244 318.865C223.189 318.871 223.139 318.897 223.102 318.938C223.066 318.98 223.047 319.033 223.048 319.088L222.678 319.113L221.057 319.248L215.526 319.748L213.39 318.23L212.638 317.705C212.471 316.031 212.315 314.476 212.18 313.136V313.073H212.117L208.611 313.441L207.631 313.553L207.498 313.571C207.481 313.543 207.46 313.518 207.436 313.496C207.403 313.463 207.364 313.437 207.321 313.42C207.278 313.402 207.232 313.393 207.185 313.393C207.123 313.393 207.09 313.411 207.093 313.418C207.095 313.426 207.235 313.418 207.343 313.568C207.348 313.574 207.352 313.581 207.356 313.588L207.271 313.606C207.271 313.606 207.301 313.606 207.361 313.606C207.383 313.643 207.398 313.684 207.403 313.727C207.409 313.77 207.406 313.814 207.393 313.856C207.377 313.912 207.344 313.963 207.299 314.001C207.254 314.038 207.198 314.062 207.139 314.067C207.081 314.073 207.022 314.061 206.97 314.032C206.918 314.004 206.876 313.961 206.85 313.908C206.827 313.864 206.815 313.815 206.815 313.766C206.815 313.716 206.827 313.667 206.85 313.623C206.937 313.463 207.083 313.451 207.075 313.426C207.068 313.401 207.04 313.406 206.977 313.426C206.888 313.446 206.81 313.499 206.757 313.573C206.717 313.632 206.693 313.699 206.687 313.77C206.681 313.84 206.693 313.911 206.722 313.976C206.759 314.056 206.82 314.123 206.897 314.167C206.973 314.212 207.062 314.231 207.15 314.222C207.239 314.214 207.322 314.178 207.389 314.12C207.456 314.062 207.503 313.984 207.524 313.898C207.547 313.803 207.533 313.702 207.486 313.616H207.609L208.591 313.538L212.045 313.228C212.2 314.556 212.345 316.101 212.508 317.76Z" fill="white"/>
<path opacity="0.2" d="M229.195 314.76L227.131 313.063L227.106 313.043H227.076L226.893 313.063L217.974 313.945L216.551 313.143H216.533H216.516L214.675 313.328H214.652L214.64 313.345L212.791 315.615V315.628C212.856 316.225 212.909 316.688 212.944 317.013C212.961 317.16 212.976 317.278 212.986 317.368C212.989 317.407 212.996 317.447 213.006 317.485C213.01 317.445 213.01 317.405 213.006 317.365C213.006 317.275 212.991 317.158 212.981 317.008C212.954 316.688 212.914 316.228 212.864 315.635L214.715 313.418L216.518 313.25L217.936 314.063H217.954H217.976L226.918 313.208L227.069 313.193L229.135 314.888L229.158 314.905H229.19L229.634 314.86C229.634 314.813 229.634 314.763 229.634 314.715L229.195 314.76Z" fill="white"/>
<path opacity="0.2" d="M200.801 296.459L200.826 296.477L203.007 298.267C203.22 300.389 203.413 302.291 203.566 303.816V303.846L203.594 303.861L205.62 304.861H205.64L206.892 304.724L207.213 304.681C207.25 304.678 207.287 304.671 207.323 304.661C207.287 304.656 207.25 304.656 207.213 304.661L206.887 304.684L205.65 304.786L203.676 303.786C203.531 302.259 203.353 300.354 203.153 298.232V298.197L203.128 298.177L200.943 296.379C200.898 295.944 200.856 295.514 200.813 295.089L200.673 295.139C200.713 295.562 200.753 295.989 200.796 296.424L200.801 296.459Z" fill="white"/>
<path opacity="0.2" d="M204.41 298.074L204.393 298.097V298.124C204.55 299.624 204.683 300.904 204.781 301.834C204.831 302.274 204.874 302.629 204.904 302.894C204.914 303.021 204.934 303.147 204.964 303.271C204.969 303.144 204.964 303.017 204.949 302.891C204.929 302.624 204.901 302.266 204.866 301.826C204.783 300.901 204.668 299.629 204.533 298.139L206.564 295.687L207.651 294.362L207.671 294.339V294.309L207.634 293.939H207.499L207.531 294.292L206.459 295.592L204.41 298.074Z" fill="white"/>
<path opacity="0.2" d="M206.907 297.984C206.932 297.945 206.945 297.898 206.942 297.852C206.936 297.794 206.908 297.741 206.864 297.705C206.819 297.668 206.762 297.651 206.704 297.657C206.676 297.659 206.648 297.667 206.623 297.68C206.598 297.694 206.576 297.712 206.557 297.733C206.539 297.755 206.526 297.78 206.517 297.808C206.509 297.835 206.506 297.863 206.509 297.892C206.511 297.932 206.524 297.972 206.548 298.005C206.572 298.038 206.606 298.064 206.644 298.078C206.682 298.093 206.724 298.096 206.764 298.087C206.804 298.079 206.841 298.058 206.87 298.029L207.092 298.229C207.33 298.441 207.671 298.729 208.069 299.066C208.099 299.384 208.132 299.724 208.164 300.066C208.24 300.854 208.317 301.566 208.382 302.084C208.402 302.364 208.447 302.642 208.518 302.914C208.533 302.633 208.522 302.352 208.488 302.074C208.453 301.554 208.39 300.839 208.315 300.051C208.277 299.686 208.24 299.336 208.207 299.014V298.984L208.185 298.966C207.766 298.629 207.408 298.346 207.15 298.152L206.907 297.984Z" fill="white"/>
<path opacity="0.2" d="M209.475 303.601V303.626L209.49 303.644L210.624 304.821L210.647 304.846H210.682L217.312 304.196L220.731 303.864H220.764L220.784 303.839L223.377 300.446L223.279 300.344L220.684 303.736L217.297 304.064L210.707 304.696L209.61 303.564C209.219 299.669 208.886 296.349 208.651 293.994V293.952H208.565V294.004C208.791 296.364 209.104 299.696 209.475 303.601Z" fill="white"/>
<path opacity="0.2" d="M212.258 305.946L210.685 306.076L205.495 306.566C205.475 306.341 205.452 306.106 205.427 305.869V305.814V305.774L205.392 305.756L203.366 304.611L203.346 304.599H203.323L199.16 305.031L197.955 305.169L197.635 305.211C197.597 305.214 197.56 305.222 197.524 305.234C197.562 305.24 197.6 305.24 197.637 305.234L197.96 305.214L199.168 305.119L203.316 304.741L205.284 305.861V305.879C205.312 306.141 205.337 306.403 205.362 306.651V306.726H205.435L210.695 306.191L212.263 306.016L212.686 305.961C212.736 305.958 212.785 305.947 212.832 305.931C212.783 305.924 212.733 305.924 212.684 305.931L212.258 305.946Z" fill="white"/>
<path opacity="0.2" d="M193.221 299.544L194.606 300.924L194.631 300.946H194.663L198.421 300.564C198.508 301.369 198.581 302.031 198.634 302.511C198.656 302.691 198.676 302.844 198.691 302.969C198.691 302.969 198.674 302.969 198.674 302.984C198.674 302.999 198.674 302.984 198.696 302.996V303.056C198.7 303.121 198.711 303.184 198.729 303.246C198.736 303.182 198.736 303.118 198.729 303.054V303.006C198.808 303.026 198.878 303.071 198.929 303.134C198.96 303.173 198.982 303.218 198.992 303.267C199.002 303.316 199 303.366 198.987 303.414C198.971 303.47 198.938 303.521 198.893 303.559C198.847 303.596 198.792 303.62 198.733 303.625C198.674 303.631 198.615 303.619 198.564 303.591C198.512 303.562 198.47 303.519 198.443 303.466C198.42 303.422 198.408 303.373 198.408 303.324C198.408 303.274 198.42 303.225 198.443 303.181C198.531 303.021 198.676 303.006 198.669 302.984C198.661 302.961 198.634 302.964 198.571 302.984C198.527 302.993 198.485 303.011 198.447 303.036C198.41 303.061 198.378 303.094 198.353 303.131C198.312 303.189 198.287 303.257 198.281 303.328C198.274 303.398 198.286 303.469 198.316 303.534C198.353 303.614 198.414 303.681 198.491 303.725C198.568 303.769 198.657 303.788 198.745 303.779C198.833 303.771 198.917 303.734 198.983 303.676C199.05 303.618 199.097 303.54 199.117 303.454C199.134 303.385 199.132 303.314 199.112 303.246C199.092 303.179 199.055 303.118 199.004 303.069C198.938 303.002 198.848 302.965 198.754 302.964C198.741 302.962 198.729 302.962 198.716 302.964C198.716 302.836 198.696 302.686 198.684 302.506C198.641 302.006 198.584 301.331 198.511 300.507V300.447H198.453L194.696 300.796L193.343 299.444L193.221 299.544Z" fill="white"/>
</g>
<path d="M56.4418 253.371C56.4418 253.371 64.8122 246.641 92.6084 261.274C92.6084 261.274 120.572 273.424 111.224 285.032C103.274 294.91 87.0034 289.292 78.0329 285.093C72.8688 282.578 68.0166 279.47 63.5749 275.832C56.4418 269.886 50.4779 260.915 56.4418 253.371Z" fill="#F4B740"/>
<path opacity="0.4" d="M56.4418 253.371C56.4418 253.371 64.8122 246.641 92.6084 261.274C92.6084 261.274 120.572 273.424 111.224 285.032C103.274 294.91 87.0034 289.292 78.0329 285.093C72.8688 282.578 68.0166 279.47 63.5749 275.832C56.4418 269.886 50.4779 260.915 56.4418 253.371Z" fill="black"/>
<path d="M57.0606 252.877C57.0606 252.877 66.8973 242.671 94.6873 257.316C94.6873 257.316 121.976 272.832 111.595 283.525C104.474 290.854 89.0823 285.334 80.1118 281.136C75.4038 278.932 68.8337 275.24 64.8433 271.875C57.6793 265.935 52.4145 258.372 57.0606 252.877Z" fill="#F4B740"/>
<path opacity="0.2" d="M106.648 279.719C109.15 274.991 101.337 265.971 89.1976 259.573C77.0581 253.174 65.1889 251.82 62.6869 256.548C60.185 261.276 67.9977 270.296 80.1372 276.694C92.2767 283.092 104.146 284.447 106.648 279.719Z" fill="white"/>
<path d="M99.8467 273.961L96.0915 271.807C95.1328 269.921 93.5628 268.415 91.6372 267.534C88.5439 266.2 86.8426 266.873 86.8426 266.873C86.8426 266.873 86.7807 263.823 82.512 261.804C76.944 259.156 75.9789 260.878 75.9789 260.878L71.3885 258.248L70.1512 260.384L74.0611 262.626L73.7023 263.243L69.681 260.94L68.3818 263.187L72.4402 265.342L71.8216 266.367L92.0393 277.962L92.9116 276.45L96.8896 278.734L98.0031 276.801L94.2912 274.671L94.8604 273.683L98.5723 275.814L99.8467 273.961ZM82.0047 269.078L76.9812 266.194C76.9812 266.194 78.3422 262.737 81.4974 264.237C84.6525 265.737 82.0047 269.078 82.0047 269.078ZM90.2452 273.591L85.9146 271.121C85.9146 271.121 86.5332 267.861 89.5461 269.232C93.0168 270.788 90.2452 273.591 90.2452 273.591Z" fill="#F4B740"/>
<path opacity="0.4" d="M99.8467 273.961L96.0915 271.807C95.1328 269.921 93.5628 268.415 91.6372 267.534C88.5439 266.2 86.8426 266.873 86.8426 266.873C86.8426 266.873 86.7807 263.823 82.512 261.804C76.944 259.156 75.9789 260.878 75.9789 260.878L71.3885 258.248L70.1512 260.384L74.0611 262.626L73.7023 263.243L69.681 260.94L68.3818 263.187L72.4402 265.342L71.8216 266.367L92.0393 277.962L92.9116 276.45L96.8896 278.734L98.0031 276.801L94.2912 274.671L94.8604 273.683L98.5723 275.814L99.8467 273.961ZM82.0047 269.078L76.9812 266.194C76.9812 266.194 78.3422 262.737 81.4974 264.237C84.6525 265.737 82.0047 269.078 82.0047 269.078ZM90.2452 273.591L85.9146 271.121C85.9146 271.121 86.5332 267.861 89.5461 269.232C93.0168 270.788 90.2452 273.591 90.2452 273.591Z" fill="black"/>
<path d="M100.769 272.325L97.0135 270.17C96.0553 268.286 94.485 266.782 92.5592 265.904C89.4659 264.57 87.7708 265.243 87.7708 265.243C87.7708 265.243 87.7089 262.193 83.4402 260.174C77.8723 257.519 76.9133 259.248 76.9133 259.248L72.3229 256.612L71.0856 258.754L75.0017 260.995L74.6429 261.613L70.6216 259.304L69.3286 261.557L73.387 263.712L72.7683 264.731L92.9798 276.332L93.8522 274.813L97.8363 277.098L98.9499 275.171L95.2379 273.035L95.8009 272.053L99.6366 274.251L100.769 272.325ZM82.9329 267.441L77.9094 264.546C77.9094 264.546 79.2642 261.088 82.4256 262.582C85.5869 264.076 82.9329 267.441 82.9329 267.441ZM91.1734 271.955L86.8428 269.485C86.8428 269.485 87.4614 266.225 90.4681 267.589C93.945 269.158 91.1734 271.955 91.1734 271.955Z" fill="#F4B740"/>
<path d="M58.2979 251.963C58.2979 251.963 58.4834 251.796 58.9165 251.562C59.1207 251.444 59.3681 251.302 59.6775 251.16C59.9868 251.018 60.3394 250.839 60.7539 250.679C63.0819 249.736 65.547 249.176 68.0541 249.018C69.7852 248.897 71.5234 248.92 73.2508 249.086C75.2288 249.291 77.1877 249.65 79.1095 250.16C83.4543 251.392 87.6719 253.033 91.7053 255.062C100.453 259.18 107.308 264.99 111.007 270.152C112.863 272.745 113.773 275.258 113.915 277.042C113.915 277.265 113.958 277.468 113.977 277.66V278.209C113.984 278.499 113.961 278.788 113.909 279.074C113.9 279.312 113.848 279.546 113.754 279.765C113.655 279.765 113.835 278.783 113.55 277.079C113.052 274.686 111.992 272.445 110.457 270.541C106.708 265.602 99.9396 259.971 91.2784 255.92C87.2781 253.904 83.1039 252.25 78.8063 250.981C76.9489 250.477 75.0569 250.11 73.1456 249.882C71.4641 249.689 69.77 249.627 68.0788 249.697C65.6236 249.798 63.195 250.245 60.8653 251.024C59.1949 251.58 58.3288 252.043 58.2979 251.963Z" fill="#FAFAFA"/>
<path opacity="0.4" d="M106.943 278.975C106.943 278.975 110.884 269.362 90.0348 258.063C69.186 246.764 62.6777 256.52 62.6777 256.52C62.6777 256.52 68.0848 248.45 89.7873 259.81C108.687 269.726 106.943 278.975 106.943 278.975Z" fill="black"/>
<path d="M101.604 290.292C101.48 290.292 101.672 289.508 101.994 288.625C102.142 288.066 102.396 287.54 102.742 287.075C102.691 287.65 102.54 288.212 102.297 288.736C102.132 289.281 101.899 289.804 101.604 290.292Z" fill="#263238"/>
<path d="M106.757 288.711C106.633 288.711 106.757 288.063 107.035 287.359C107.314 286.655 107.586 286.094 107.654 286.125C107.643 286.592 107.529 287.052 107.32 287.47C107.198 287.911 107.008 288.329 106.757 288.711Z" fill="#263238"/>
<path d="M97.063 290.477C97.1166 289.837 97.2776 289.211 97.5393 288.625C97.7002 288.011 97.9637 287.429 98.3188 286.902C98.2643 287.542 98.1033 288.168 97.8424 288.755C97.6831 289.369 97.4195 289.952 97.063 290.477Z" fill="#263238"/>
<path d="M92.6396 289.989C92.7073 289.315 92.8827 288.657 93.1593 288.038C93.3311 287.38 93.609 286.755 93.9821 286.186C93.7405 287.513 93.2873 288.793 92.6396 289.977V289.989Z" fill="#263238"/>
<path d="M87.8262 288.687C87.8938 288.013 88.0692 287.354 88.3458 286.736C88.5206 286.079 88.7983 285.454 89.1686 284.883C89.0982 285.557 88.9228 286.215 88.649 286.834C88.4758 287.492 88.198 288.117 87.8262 288.687Z" fill="#263238"/>
<path d="M83.3779 287.106C83.4455 286.432 83.621 285.773 83.8976 285.155C84.0724 284.498 84.3501 283.873 84.7204 283.303C84.6499 283.976 84.4746 284.634 84.2007 285.254C84.0275 285.911 83.7497 286.537 83.3779 287.106Z" fill="#263238"/>
<path d="M78.9297 285.538C78.9973 284.864 79.1727 284.205 79.4494 283.587C79.6242 282.93 79.9019 282.305 80.2722 281.735C80.0299 283.065 79.5767 284.349 78.9297 285.538Z" fill="#263238"/>
<path d="M74.7539 283.179C74.821 282.506 74.9943 281.848 75.2674 281.228C75.4438 280.572 75.7213 279.947 76.0902 279.376C76.0231 280.049 75.8498 280.708 75.5767 281.327C75.4004 281.983 75.1228 282.608 74.7539 283.179Z" fill="#263238"/>
<path d="M70.6089 280.728C70.8518 279.399 71.305 278.118 71.9514 276.931C71.8838 277.605 71.7084 278.264 71.4317 278.882C71.2563 279.537 70.9786 280.16 70.6089 280.728Z" fill="#263238"/>
<path d="M66.501 278.166C66.5721 277.493 66.7474 276.834 67.0206 276.215C67.1955 275.558 67.4731 274.933 67.8434 274.363C67.773 275.036 67.5976 275.694 67.3238 276.314C67.1506 276.971 66.8728 277.596 66.501 278.166Z" fill="#263238"/>
<path d="M62.7397 275.258C62.9827 273.929 63.4358 272.647 64.0822 271.461C64.011 272.134 63.8357 272.792 63.5625 273.412C63.3887 274.067 63.1109 274.69 62.7397 275.258Z" fill="#263238"/>
<path d="M59.1143 271.671C59.3572 270.342 59.8103 269.06 60.4567 267.874C60.3856 268.547 60.2103 269.205 59.9371 269.825C59.7632 270.48 59.4854 271.103 59.1143 271.671Z" fill="#263238"/>
<path d="M56.3677 267.442C56.416 266.84 56.5666 266.251 56.8131 265.7C56.9663 265.113 57.2218 264.557 57.5679 264.058C57.5179 264.653 57.3673 265.236 57.1224 265.781C56.9729 266.375 56.7172 266.938 56.3677 267.442Z" fill="#263238"/>
<path d="M54.3633 263.033C54.4116 262.432 54.5622 261.843 54.8087 261.292C54.961 260.706 55.2166 260.152 55.5635 259.656C55.5159 260.257 55.3653 260.846 55.118 261.397C54.9674 261.983 54.7117 262.538 54.3633 263.033Z" fill="#263238"/>
<path d="M81.528 262.551C81.4105 262.798 80.9465 262.829 80.4516 262.879C79.9566 262.928 79.4865 262.959 79.3318 262.737C79.2637 262.625 79.3318 262.446 79.4988 262.274C79.7449 262.067 80.049 261.942 80.3692 261.916C80.6894 261.889 81.01 261.962 81.2868 262.125C81.4971 262.261 81.5775 262.434 81.528 262.551Z" fill="#FAFAFA"/>
<path d="M90.3687 267.633C90.2079 267.849 89.7006 267.763 89.1314 267.725C88.5623 267.688 88.0673 267.682 87.9498 267.435C87.8941 267.318 87.9498 267.139 88.2096 266.991C88.5136 266.817 88.8631 266.74 89.212 266.768C89.561 266.797 89.8931 266.93 90.1646 267.151C90.3811 267.349 90.4677 267.534 90.3687 267.633Z" fill="#FAFAFA"/>
<path d="M83.9719 260.44C83.9719 260.496 83.7492 260.44 83.4399 260.36L82.2026 259.89C81.5985 259.66 80.9782 259.474 80.3466 259.335C79.6087 259.156 78.8414 259.135 78.0947 259.273C77.9401 259.303 77.7888 259.349 77.6431 259.409C77.526 259.457 77.4141 259.517 77.309 259.588L77.0121 259.816L76.7399 259.662C74.1539 258.125 72.2732 256.822 72.4093 256.612C72.5454 256.402 74.6055 257.371 77.2348 258.835L76.6718 258.903C76.8552 258.745 77.0645 258.619 77.2905 258.532C77.488 258.44 77.6956 258.372 77.9091 258.328C78.8005 258.159 79.7195 258.208 80.5879 258.47C81.2272 258.669 81.8432 258.936 82.4253 259.267C82.8408 259.484 83.2345 259.74 83.6007 260.032C83.8791 260.224 84.0091 260.384 83.9719 260.44Z" fill="#FAFAFA"/>
</svg>
